G04 #@! TF.GenerationSoftware,KiCad,Pcbnew,(5.1.2)-1*
G04 #@! TF.CreationDate,2019-11-10T18:16:18+09:00*
G04 #@! TF.ProjectId,Inverter,496e7665-7274-4657-922e-6b696361645f,rev?*
G04 #@! TF.SameCoordinates,PX5731c70PY93d1cc0*
G04 #@! TF.FileFunction,Soldermask,Top*
G04 #@! TF.FilePolarity,Negative*
%FSLAX46Y46*%
G04 Gerber Fmt 4.6, Leading zero omitted, Abs format (unit mm)*
G04 Created by KiCad (PCBNEW (5.1.2)-1) date 2019-11-10 18:16:18*
%MOMM*%
%LPD*%
G04 APERTURE LIST*
%ADD10C,0.100000*%
%ADD11R,6.800000X6.200000*%
%ADD12R,2.600000X1.600000*%
%ADD13O,2.000000X2.000000*%
%ADD14R,2.000000X2.000000*%
%ADD15C,1.400000*%
%ADD16C,4.400000*%
%ADD17C,2.200000*%
%ADD18C,2.800000*%
%ADD19R,2.800000X2.800000*%
%ADD20C,2.000000*%
%ADD21C,6.800000*%
%ADD22C,2.400000*%
%ADD23C,1.350000*%
%ADD24R,6.200000X6.800000*%
%ADD25R,1.600000X2.600000*%
%ADD26R,5.400000X10.400000*%
%ADD27R,10.400000X5.400000*%
%ADD28R,0.908000X2.381200*%
%ADD29R,1.600000X1.300000*%
G04 APERTURE END LIST*
D10*
G36*
X41402000Y10795000D02*
G01*
X39878000Y10795000D01*
X39878000Y16510000D01*
X41402000Y16510000D01*
X41402000Y10795000D01*
G37*
X41402000Y10795000D02*
X39878000Y10795000D01*
X39878000Y16510000D01*
X41402000Y16510000D01*
X41402000Y10795000D01*
G36*
X32512000Y10795000D02*
G01*
X30988000Y10795000D01*
X30988000Y16510000D01*
X32512000Y16510000D01*
X32512000Y10795000D01*
G37*
X32512000Y10795000D02*
X30988000Y10795000D01*
X30988000Y16510000D01*
X32512000Y16510000D01*
X32512000Y10795000D01*
G36*
X23622000Y10795000D02*
G01*
X22098000Y10795000D01*
X22098000Y16510000D01*
X23622000Y16510000D01*
X23622000Y10795000D01*
G37*
X23622000Y10795000D02*
X22098000Y10795000D01*
X22098000Y16510000D01*
X23622000Y16510000D01*
X23622000Y10795000D01*
G36*
X43688000Y23241000D02*
G01*
X42164000Y23241000D01*
X42164000Y25019000D01*
X43688000Y25019000D01*
X43688000Y23241000D01*
G37*
X43688000Y23241000D02*
X42164000Y23241000D01*
X42164000Y25019000D01*
X43688000Y25019000D01*
X43688000Y23241000D01*
G36*
X34798000Y23241000D02*
G01*
X33274000Y23241000D01*
X33274000Y25019000D01*
X34798000Y25019000D01*
X34798000Y23241000D01*
G37*
X34798000Y23241000D02*
X33274000Y23241000D01*
X33274000Y25019000D01*
X34798000Y25019000D01*
X34798000Y23241000D01*
G36*
X25908000Y23241000D02*
G01*
X24384000Y23241000D01*
X24384000Y25019000D01*
X25908000Y25019000D01*
X25908000Y23241000D01*
G37*
X25908000Y23241000D02*
X24384000Y23241000D01*
X24384000Y25019000D01*
X25908000Y25019000D01*
X25908000Y23241000D01*
D11*
X56320000Y52705000D03*
D12*
X62620000Y54985000D03*
X62620000Y52705000D03*
X62620000Y50425000D03*
D13*
X64008000Y79502000D03*
X64008000Y64262000D03*
X28448000Y79502000D03*
X61468000Y64262000D03*
X30988000Y79502000D03*
X58928000Y64262000D03*
X33528000Y79502000D03*
X56388000Y64262000D03*
X36068000Y79502000D03*
X53848000Y64262000D03*
X38608000Y79502000D03*
X51308000Y64262000D03*
X41148000Y79502000D03*
X48768000Y64262000D03*
X43688000Y79502000D03*
X46228000Y64262000D03*
X46228000Y79502000D03*
X43688000Y64262000D03*
X48768000Y79502000D03*
X41148000Y64262000D03*
X51308000Y79502000D03*
X38608000Y64262000D03*
X53848000Y79502000D03*
X36068000Y64262000D03*
X56388000Y79502000D03*
X33528000Y64262000D03*
X58928000Y79502000D03*
X30988000Y64262000D03*
X61468000Y79502000D03*
D14*
X28448000Y64262000D03*
D15*
X22860000Y72390000D03*
X4445000Y67310000D03*
X7747000Y67310000D03*
X10922000Y67310000D03*
D16*
X10800000Y80630000D03*
X19600000Y80630000D03*
D17*
X12700000Y87630000D03*
X15200000Y87630000D03*
X17700000Y87630000D03*
D18*
X52070000Y12780000D03*
D19*
X52070000Y17780000D03*
D18*
X52070000Y28020000D03*
D19*
X52070000Y33020000D03*
D18*
X7700000Y15240000D03*
D19*
X12700000Y15240000D03*
D18*
X7700000Y30480000D03*
D19*
X12700000Y30480000D03*
D20*
X67310000Y55285000D03*
D14*
X67310000Y57785000D03*
D20*
X67310000Y50760000D03*
D14*
X67310000Y48260000D03*
D21*
X5000000Y87000000D03*
X66000000Y87000000D03*
X5000000Y5000000D03*
X66000000Y5000000D03*
D22*
X44808000Y83566000D03*
X44808000Y88066000D03*
X51308000Y83566000D03*
X51308000Y88066000D03*
X33632000Y83566000D03*
X33632000Y88066000D03*
X40132000Y83566000D03*
X40132000Y88066000D03*
D10*
G36*
X5450581Y53823375D02*
G01*
X5483343Y53818515D01*
X5515471Y53810467D01*
X5546656Y53799309D01*
X5576596Y53785148D01*
X5605005Y53768121D01*
X5631608Y53748391D01*
X5656149Y53726149D01*
X5678391Y53701608D01*
X5698121Y53675005D01*
X5715148Y53646596D01*
X5729309Y53616656D01*
X5740467Y53585471D01*
X5748515Y53553343D01*
X5753375Y53520581D01*
X5755000Y53487500D01*
X5755000Y52712500D01*
X5753375Y52679419D01*
X5748515Y52646657D01*
X5740467Y52614529D01*
X5729309Y52583344D01*
X5715148Y52553404D01*
X5698121Y52524995D01*
X5678391Y52498392D01*
X5656149Y52473851D01*
X5631608Y52451609D01*
X5605005Y52431879D01*
X5576596Y52414852D01*
X5546656Y52400691D01*
X5515471Y52389533D01*
X5483343Y52381485D01*
X5450581Y52376625D01*
X5417500Y52375000D01*
X4742500Y52375000D01*
X4709419Y52376625D01*
X4676657Y52381485D01*
X4644529Y52389533D01*
X4613344Y52400691D01*
X4583404Y52414852D01*
X4554995Y52431879D01*
X4528392Y52451609D01*
X4503851Y52473851D01*
X4481609Y52498392D01*
X4461879Y52524995D01*
X4444852Y52553404D01*
X4430691Y52583344D01*
X4419533Y52614529D01*
X4411485Y52646657D01*
X4406625Y52679419D01*
X4405000Y52712500D01*
X4405000Y53487500D01*
X4406625Y53520581D01*
X4411485Y53553343D01*
X4419533Y53585471D01*
X4430691Y53616656D01*
X4444852Y53646596D01*
X4461879Y53675005D01*
X4481609Y53701608D01*
X4503851Y53726149D01*
X4528392Y53748391D01*
X4554995Y53768121D01*
X4583404Y53785148D01*
X4613344Y53799309D01*
X4644529Y53810467D01*
X4676657Y53818515D01*
X4709419Y53823375D01*
X4742500Y53825000D01*
X5417500Y53825000D01*
X5450581Y53823375D01*
X5450581Y53823375D01*
G37*
D23*
X5080000Y53100000D03*
D10*
G36*
X5450581Y55573375D02*
G01*
X5483343Y55568515D01*
X5515471Y55560467D01*
X5546656Y55549309D01*
X5576596Y55535148D01*
X5605005Y55518121D01*
X5631608Y55498391D01*
X5656149Y55476149D01*
X5678391Y55451608D01*
X5698121Y55425005D01*
X5715148Y55396596D01*
X5729309Y55366656D01*
X5740467Y55335471D01*
X5748515Y55303343D01*
X5753375Y55270581D01*
X5755000Y55237500D01*
X5755000Y54462500D01*
X5753375Y54429419D01*
X5748515Y54396657D01*
X5740467Y54364529D01*
X5729309Y54333344D01*
X5715148Y54303404D01*
X5698121Y54274995D01*
X5678391Y54248392D01*
X5656149Y54223851D01*
X5631608Y54201609D01*
X5605005Y54181879D01*
X5576596Y54164852D01*
X5546656Y54150691D01*
X5515471Y54139533D01*
X5483343Y54131485D01*
X5450581Y54126625D01*
X5417500Y54125000D01*
X4742500Y54125000D01*
X4709419Y54126625D01*
X4676657Y54131485D01*
X4644529Y54139533D01*
X4613344Y54150691D01*
X4583404Y54164852D01*
X4554995Y54181879D01*
X4528392Y54201609D01*
X4503851Y54223851D01*
X4481609Y54248392D01*
X4461879Y54274995D01*
X4444852Y54303404D01*
X4430691Y54333344D01*
X4419533Y54364529D01*
X4411485Y54396657D01*
X4406625Y54429419D01*
X4405000Y54462500D01*
X4405000Y55237500D01*
X4406625Y55270581D01*
X4411485Y55303343D01*
X4419533Y55335471D01*
X4430691Y55366656D01*
X4444852Y55396596D01*
X4461879Y55425005D01*
X4481609Y55451608D01*
X4503851Y55476149D01*
X4528392Y55498391D01*
X4554995Y55518121D01*
X4583404Y55535148D01*
X4613344Y55549309D01*
X4644529Y55560467D01*
X4676657Y55568515D01*
X4709419Y55573375D01*
X4742500Y55575000D01*
X5417500Y55575000D01*
X5450581Y55573375D01*
X5450581Y55573375D01*
G37*
D23*
X5080000Y54850000D03*
D10*
G36*
X49900581Y54303375D02*
G01*
X49933343Y54298515D01*
X49965471Y54290467D01*
X49996656Y54279309D01*
X50026596Y54265148D01*
X50055005Y54248121D01*
X50081608Y54228391D01*
X50106149Y54206149D01*
X50128391Y54181608D01*
X50148121Y54155005D01*
X50165148Y54126596D01*
X50179309Y54096656D01*
X50190467Y54065471D01*
X50198515Y54033343D01*
X50203375Y54000581D01*
X50205000Y53967500D01*
X50205000Y53192500D01*
X50203375Y53159419D01*
X50198515Y53126657D01*
X50190467Y53094529D01*
X50179309Y53063344D01*
X50165148Y53033404D01*
X50148121Y53004995D01*
X50128391Y52978392D01*
X50106149Y52953851D01*
X50081608Y52931609D01*
X50055005Y52911879D01*
X50026596Y52894852D01*
X49996656Y52880691D01*
X49965471Y52869533D01*
X49933343Y52861485D01*
X49900581Y52856625D01*
X49867500Y52855000D01*
X49192500Y52855000D01*
X49159419Y52856625D01*
X49126657Y52861485D01*
X49094529Y52869533D01*
X49063344Y52880691D01*
X49033404Y52894852D01*
X49004995Y52911879D01*
X48978392Y52931609D01*
X48953851Y52953851D01*
X48931609Y52978392D01*
X48911879Y53004995D01*
X48894852Y53033404D01*
X48880691Y53063344D01*
X48869533Y53094529D01*
X48861485Y53126657D01*
X48856625Y53159419D01*
X48855000Y53192500D01*
X48855000Y53967500D01*
X48856625Y54000581D01*
X48861485Y54033343D01*
X48869533Y54065471D01*
X48880691Y54096656D01*
X48894852Y54126596D01*
X48911879Y54155005D01*
X48931609Y54181608D01*
X48953851Y54206149D01*
X48978392Y54228391D01*
X49004995Y54248121D01*
X49033404Y54265148D01*
X49063344Y54279309D01*
X49094529Y54290467D01*
X49126657Y54298515D01*
X49159419Y54303375D01*
X49192500Y54305000D01*
X49867500Y54305000D01*
X49900581Y54303375D01*
X49900581Y54303375D01*
G37*
D23*
X49530000Y53580000D03*
D10*
G36*
X49900581Y52553375D02*
G01*
X49933343Y52548515D01*
X49965471Y52540467D01*
X49996656Y52529309D01*
X50026596Y52515148D01*
X50055005Y52498121D01*
X50081608Y52478391D01*
X50106149Y52456149D01*
X50128391Y52431608D01*
X50148121Y52405005D01*
X50165148Y52376596D01*
X50179309Y52346656D01*
X50190467Y52315471D01*
X50198515Y52283343D01*
X50203375Y52250581D01*
X50205000Y52217500D01*
X50205000Y51442500D01*
X50203375Y51409419D01*
X50198515Y51376657D01*
X50190467Y51344529D01*
X50179309Y51313344D01*
X50165148Y51283404D01*
X50148121Y51254995D01*
X50128391Y51228392D01*
X50106149Y51203851D01*
X50081608Y51181609D01*
X50055005Y51161879D01*
X50026596Y51144852D01*
X49996656Y51130691D01*
X49965471Y51119533D01*
X49933343Y51111485D01*
X49900581Y51106625D01*
X49867500Y51105000D01*
X49192500Y51105000D01*
X49159419Y51106625D01*
X49126657Y51111485D01*
X49094529Y51119533D01*
X49063344Y51130691D01*
X49033404Y51144852D01*
X49004995Y51161879D01*
X48978392Y51181609D01*
X48953851Y51203851D01*
X48931609Y51228392D01*
X48911879Y51254995D01*
X48894852Y51283404D01*
X48880691Y51313344D01*
X48869533Y51344529D01*
X48861485Y51376657D01*
X48856625Y51409419D01*
X48855000Y51442500D01*
X48855000Y52217500D01*
X48856625Y52250581D01*
X48861485Y52283343D01*
X48869533Y52315471D01*
X48880691Y52346656D01*
X48894852Y52376596D01*
X48911879Y52405005D01*
X48931609Y52431608D01*
X48953851Y52456149D01*
X48978392Y52478391D01*
X49004995Y52498121D01*
X49033404Y52515148D01*
X49063344Y52529309D01*
X49094529Y52540467D01*
X49126657Y52548515D01*
X49159419Y52553375D01*
X49192500Y52555000D01*
X49867500Y52555000D01*
X49900581Y52553375D01*
X49900581Y52553375D01*
G37*
D23*
X49530000Y51830000D03*
D10*
G36*
X34025581Y54303375D02*
G01*
X34058343Y54298515D01*
X34090471Y54290467D01*
X34121656Y54279309D01*
X34151596Y54265148D01*
X34180005Y54248121D01*
X34206608Y54228391D01*
X34231149Y54206149D01*
X34253391Y54181608D01*
X34273121Y54155005D01*
X34290148Y54126596D01*
X34304309Y54096656D01*
X34315467Y54065471D01*
X34323515Y54033343D01*
X34328375Y54000581D01*
X34330000Y53967500D01*
X34330000Y53192500D01*
X34328375Y53159419D01*
X34323515Y53126657D01*
X34315467Y53094529D01*
X34304309Y53063344D01*
X34290148Y53033404D01*
X34273121Y53004995D01*
X34253391Y52978392D01*
X34231149Y52953851D01*
X34206608Y52931609D01*
X34180005Y52911879D01*
X34151596Y52894852D01*
X34121656Y52880691D01*
X34090471Y52869533D01*
X34058343Y52861485D01*
X34025581Y52856625D01*
X33992500Y52855000D01*
X33317500Y52855000D01*
X33284419Y52856625D01*
X33251657Y52861485D01*
X33219529Y52869533D01*
X33188344Y52880691D01*
X33158404Y52894852D01*
X33129995Y52911879D01*
X33103392Y52931609D01*
X33078851Y52953851D01*
X33056609Y52978392D01*
X33036879Y53004995D01*
X33019852Y53033404D01*
X33005691Y53063344D01*
X32994533Y53094529D01*
X32986485Y53126657D01*
X32981625Y53159419D01*
X32980000Y53192500D01*
X32980000Y53967500D01*
X32981625Y54000581D01*
X32986485Y54033343D01*
X32994533Y54065471D01*
X33005691Y54096656D01*
X33019852Y54126596D01*
X33036879Y54155005D01*
X33056609Y54181608D01*
X33078851Y54206149D01*
X33103392Y54228391D01*
X33129995Y54248121D01*
X33158404Y54265148D01*
X33188344Y54279309D01*
X33219529Y54290467D01*
X33251657Y54298515D01*
X33284419Y54303375D01*
X33317500Y54305000D01*
X33992500Y54305000D01*
X34025581Y54303375D01*
X34025581Y54303375D01*
G37*
D23*
X33655000Y53580000D03*
D10*
G36*
X34025581Y52553375D02*
G01*
X34058343Y52548515D01*
X34090471Y52540467D01*
X34121656Y52529309D01*
X34151596Y52515148D01*
X34180005Y52498121D01*
X34206608Y52478391D01*
X34231149Y52456149D01*
X34253391Y52431608D01*
X34273121Y52405005D01*
X34290148Y52376596D01*
X34304309Y52346656D01*
X34315467Y52315471D01*
X34323515Y52283343D01*
X34328375Y52250581D01*
X34330000Y52217500D01*
X34330000Y51442500D01*
X34328375Y51409419D01*
X34323515Y51376657D01*
X34315467Y51344529D01*
X34304309Y51313344D01*
X34290148Y51283404D01*
X34273121Y51254995D01*
X34253391Y51228392D01*
X34231149Y51203851D01*
X34206608Y51181609D01*
X34180005Y51161879D01*
X34151596Y51144852D01*
X34121656Y51130691D01*
X34090471Y51119533D01*
X34058343Y51111485D01*
X34025581Y51106625D01*
X33992500Y51105000D01*
X33317500Y51105000D01*
X33284419Y51106625D01*
X33251657Y51111485D01*
X33219529Y51119533D01*
X33188344Y51130691D01*
X33158404Y51144852D01*
X33129995Y51161879D01*
X33103392Y51181609D01*
X33078851Y51203851D01*
X33056609Y51228392D01*
X33036879Y51254995D01*
X33019852Y51283404D01*
X33005691Y51313344D01*
X32994533Y51344529D01*
X32986485Y51376657D01*
X32981625Y51409419D01*
X32980000Y51442500D01*
X32980000Y52217500D01*
X32981625Y52250581D01*
X32986485Y52283343D01*
X32994533Y52315471D01*
X33005691Y52346656D01*
X33019852Y52376596D01*
X33036879Y52405005D01*
X33056609Y52431608D01*
X33078851Y52456149D01*
X33103392Y52478391D01*
X33129995Y52498121D01*
X33158404Y52515148D01*
X33188344Y52529309D01*
X33219529Y52540467D01*
X33251657Y52548515D01*
X33284419Y52553375D01*
X33317500Y52555000D01*
X33992500Y52555000D01*
X34025581Y52553375D01*
X34025581Y52553375D01*
G37*
D23*
X33655000Y51830000D03*
D10*
G36*
X18150581Y54303375D02*
G01*
X18183343Y54298515D01*
X18215471Y54290467D01*
X18246656Y54279309D01*
X18276596Y54265148D01*
X18305005Y54248121D01*
X18331608Y54228391D01*
X18356149Y54206149D01*
X18378391Y54181608D01*
X18398121Y54155005D01*
X18415148Y54126596D01*
X18429309Y54096656D01*
X18440467Y54065471D01*
X18448515Y54033343D01*
X18453375Y54000581D01*
X18455000Y53967500D01*
X18455000Y53192500D01*
X18453375Y53159419D01*
X18448515Y53126657D01*
X18440467Y53094529D01*
X18429309Y53063344D01*
X18415148Y53033404D01*
X18398121Y53004995D01*
X18378391Y52978392D01*
X18356149Y52953851D01*
X18331608Y52931609D01*
X18305005Y52911879D01*
X18276596Y52894852D01*
X18246656Y52880691D01*
X18215471Y52869533D01*
X18183343Y52861485D01*
X18150581Y52856625D01*
X18117500Y52855000D01*
X17442500Y52855000D01*
X17409419Y52856625D01*
X17376657Y52861485D01*
X17344529Y52869533D01*
X17313344Y52880691D01*
X17283404Y52894852D01*
X17254995Y52911879D01*
X17228392Y52931609D01*
X17203851Y52953851D01*
X17181609Y52978392D01*
X17161879Y53004995D01*
X17144852Y53033404D01*
X17130691Y53063344D01*
X17119533Y53094529D01*
X17111485Y53126657D01*
X17106625Y53159419D01*
X17105000Y53192500D01*
X17105000Y53967500D01*
X17106625Y54000581D01*
X17111485Y54033343D01*
X17119533Y54065471D01*
X17130691Y54096656D01*
X17144852Y54126596D01*
X17161879Y54155005D01*
X17181609Y54181608D01*
X17203851Y54206149D01*
X17228392Y54228391D01*
X17254995Y54248121D01*
X17283404Y54265148D01*
X17313344Y54279309D01*
X17344529Y54290467D01*
X17376657Y54298515D01*
X17409419Y54303375D01*
X17442500Y54305000D01*
X18117500Y54305000D01*
X18150581Y54303375D01*
X18150581Y54303375D01*
G37*
D23*
X17780000Y53580000D03*
D10*
G36*
X18150581Y52553375D02*
G01*
X18183343Y52548515D01*
X18215471Y52540467D01*
X18246656Y52529309D01*
X18276596Y52515148D01*
X18305005Y52498121D01*
X18331608Y52478391D01*
X18356149Y52456149D01*
X18378391Y52431608D01*
X18398121Y52405005D01*
X18415148Y52376596D01*
X18429309Y52346656D01*
X18440467Y52315471D01*
X18448515Y52283343D01*
X18453375Y52250581D01*
X18455000Y52217500D01*
X18455000Y51442500D01*
X18453375Y51409419D01*
X18448515Y51376657D01*
X18440467Y51344529D01*
X18429309Y51313344D01*
X18415148Y51283404D01*
X18398121Y51254995D01*
X18378391Y51228392D01*
X18356149Y51203851D01*
X18331608Y51181609D01*
X18305005Y51161879D01*
X18276596Y51144852D01*
X18246656Y51130691D01*
X18215471Y51119533D01*
X18183343Y51111485D01*
X18150581Y51106625D01*
X18117500Y51105000D01*
X17442500Y51105000D01*
X17409419Y51106625D01*
X17376657Y51111485D01*
X17344529Y51119533D01*
X17313344Y51130691D01*
X17283404Y51144852D01*
X17254995Y51161879D01*
X17228392Y51181609D01*
X17203851Y51203851D01*
X17181609Y51228392D01*
X17161879Y51254995D01*
X17144852Y51283404D01*
X17130691Y51313344D01*
X17119533Y51344529D01*
X17111485Y51376657D01*
X17106625Y51409419D01*
X17105000Y51442500D01*
X17105000Y52217500D01*
X17106625Y52250581D01*
X17111485Y52283343D01*
X17119533Y52315471D01*
X17130691Y52346656D01*
X17144852Y52376596D01*
X17161879Y52405005D01*
X17181609Y52431608D01*
X17203851Y52456149D01*
X17228392Y52478391D01*
X17254995Y52498121D01*
X17283404Y52515148D01*
X17313344Y52529309D01*
X17344529Y52540467D01*
X17376657Y52548515D01*
X17409419Y52553375D01*
X17442500Y52555000D01*
X18117500Y52555000D01*
X18150581Y52553375D01*
X18150581Y52553375D01*
G37*
D23*
X17780000Y51830000D03*
D10*
G36*
X20817581Y71349375D02*
G01*
X20850343Y71344515D01*
X20882471Y71336467D01*
X20913656Y71325309D01*
X20943596Y71311148D01*
X20972005Y71294121D01*
X20998608Y71274391D01*
X21023149Y71252149D01*
X21045391Y71227608D01*
X21065121Y71201005D01*
X21082148Y71172596D01*
X21096309Y71142656D01*
X21107467Y71111471D01*
X21115515Y71079343D01*
X21120375Y71046581D01*
X21122000Y71013500D01*
X21122000Y70238500D01*
X21120375Y70205419D01*
X21115515Y70172657D01*
X21107467Y70140529D01*
X21096309Y70109344D01*
X21082148Y70079404D01*
X21065121Y70050995D01*
X21045391Y70024392D01*
X21023149Y69999851D01*
X20998608Y69977609D01*
X20972005Y69957879D01*
X20943596Y69940852D01*
X20913656Y69926691D01*
X20882471Y69915533D01*
X20850343Y69907485D01*
X20817581Y69902625D01*
X20784500Y69901000D01*
X20109500Y69901000D01*
X20076419Y69902625D01*
X20043657Y69907485D01*
X20011529Y69915533D01*
X19980344Y69926691D01*
X19950404Y69940852D01*
X19921995Y69957879D01*
X19895392Y69977609D01*
X19870851Y69999851D01*
X19848609Y70024392D01*
X19828879Y70050995D01*
X19811852Y70079404D01*
X19797691Y70109344D01*
X19786533Y70140529D01*
X19778485Y70172657D01*
X19773625Y70205419D01*
X19772000Y70238500D01*
X19772000Y71013500D01*
X19773625Y71046581D01*
X19778485Y71079343D01*
X19786533Y71111471D01*
X19797691Y71142656D01*
X19811852Y71172596D01*
X19828879Y71201005D01*
X19848609Y71227608D01*
X19870851Y71252149D01*
X19895392Y71274391D01*
X19921995Y71294121D01*
X19950404Y71311148D01*
X19980344Y71325309D01*
X20011529Y71336467D01*
X20043657Y71344515D01*
X20076419Y71349375D01*
X20109500Y71351000D01*
X20784500Y71351000D01*
X20817581Y71349375D01*
X20817581Y71349375D01*
G37*
D23*
X20447000Y70626000D03*
D10*
G36*
X20817581Y73099375D02*
G01*
X20850343Y73094515D01*
X20882471Y73086467D01*
X20913656Y73075309D01*
X20943596Y73061148D01*
X20972005Y73044121D01*
X20998608Y73024391D01*
X21023149Y73002149D01*
X21045391Y72977608D01*
X21065121Y72951005D01*
X21082148Y72922596D01*
X21096309Y72892656D01*
X21107467Y72861471D01*
X21115515Y72829343D01*
X21120375Y72796581D01*
X21122000Y72763500D01*
X21122000Y71988500D01*
X21120375Y71955419D01*
X21115515Y71922657D01*
X21107467Y71890529D01*
X21096309Y71859344D01*
X21082148Y71829404D01*
X21065121Y71800995D01*
X21045391Y71774392D01*
X21023149Y71749851D01*
X20998608Y71727609D01*
X20972005Y71707879D01*
X20943596Y71690852D01*
X20913656Y71676691D01*
X20882471Y71665533D01*
X20850343Y71657485D01*
X20817581Y71652625D01*
X20784500Y71651000D01*
X20109500Y71651000D01*
X20076419Y71652625D01*
X20043657Y71657485D01*
X20011529Y71665533D01*
X19980344Y71676691D01*
X19950404Y71690852D01*
X19921995Y71707879D01*
X19895392Y71727609D01*
X19870851Y71749851D01*
X19848609Y71774392D01*
X19828879Y71800995D01*
X19811852Y71829404D01*
X19797691Y71859344D01*
X19786533Y71890529D01*
X19778485Y71922657D01*
X19773625Y71955419D01*
X19772000Y71988500D01*
X19772000Y72763500D01*
X19773625Y72796581D01*
X19778485Y72829343D01*
X19786533Y72861471D01*
X19797691Y72892656D01*
X19811852Y72922596D01*
X19828879Y72951005D01*
X19848609Y72977608D01*
X19870851Y73002149D01*
X19895392Y73024391D01*
X19921995Y73044121D01*
X19950404Y73061148D01*
X19980344Y73075309D01*
X20011529Y73086467D01*
X20043657Y73094515D01*
X20076419Y73099375D01*
X20109500Y73101000D01*
X20784500Y73101000D01*
X20817581Y73099375D01*
X20817581Y73099375D01*
G37*
D23*
X20447000Y72376000D03*
D10*
G36*
X17642581Y71349375D02*
G01*
X17675343Y71344515D01*
X17707471Y71336467D01*
X17738656Y71325309D01*
X17768596Y71311148D01*
X17797005Y71294121D01*
X17823608Y71274391D01*
X17848149Y71252149D01*
X17870391Y71227608D01*
X17890121Y71201005D01*
X17907148Y71172596D01*
X17921309Y71142656D01*
X17932467Y71111471D01*
X17940515Y71079343D01*
X17945375Y71046581D01*
X17947000Y71013500D01*
X17947000Y70238500D01*
X17945375Y70205419D01*
X17940515Y70172657D01*
X17932467Y70140529D01*
X17921309Y70109344D01*
X17907148Y70079404D01*
X17890121Y70050995D01*
X17870391Y70024392D01*
X17848149Y69999851D01*
X17823608Y69977609D01*
X17797005Y69957879D01*
X17768596Y69940852D01*
X17738656Y69926691D01*
X17707471Y69915533D01*
X17675343Y69907485D01*
X17642581Y69902625D01*
X17609500Y69901000D01*
X16934500Y69901000D01*
X16901419Y69902625D01*
X16868657Y69907485D01*
X16836529Y69915533D01*
X16805344Y69926691D01*
X16775404Y69940852D01*
X16746995Y69957879D01*
X16720392Y69977609D01*
X16695851Y69999851D01*
X16673609Y70024392D01*
X16653879Y70050995D01*
X16636852Y70079404D01*
X16622691Y70109344D01*
X16611533Y70140529D01*
X16603485Y70172657D01*
X16598625Y70205419D01*
X16597000Y70238500D01*
X16597000Y71013500D01*
X16598625Y71046581D01*
X16603485Y71079343D01*
X16611533Y71111471D01*
X16622691Y71142656D01*
X16636852Y71172596D01*
X16653879Y71201005D01*
X16673609Y71227608D01*
X16695851Y71252149D01*
X16720392Y71274391D01*
X16746995Y71294121D01*
X16775404Y71311148D01*
X16805344Y71325309D01*
X16836529Y71336467D01*
X16868657Y71344515D01*
X16901419Y71349375D01*
X16934500Y71351000D01*
X17609500Y71351000D01*
X17642581Y71349375D01*
X17642581Y71349375D01*
G37*
D23*
X17272000Y70626000D03*
D10*
G36*
X17642581Y73099375D02*
G01*
X17675343Y73094515D01*
X17707471Y73086467D01*
X17738656Y73075309D01*
X17768596Y73061148D01*
X17797005Y73044121D01*
X17823608Y73024391D01*
X17848149Y73002149D01*
X17870391Y72977608D01*
X17890121Y72951005D01*
X17907148Y72922596D01*
X17921309Y72892656D01*
X17932467Y72861471D01*
X17940515Y72829343D01*
X17945375Y72796581D01*
X17947000Y72763500D01*
X17947000Y71988500D01*
X17945375Y71955419D01*
X17940515Y71922657D01*
X17932467Y71890529D01*
X17921309Y71859344D01*
X17907148Y71829404D01*
X17890121Y71800995D01*
X17870391Y71774392D01*
X17848149Y71749851D01*
X17823608Y71727609D01*
X17797005Y71707879D01*
X17768596Y71690852D01*
X17738656Y71676691D01*
X17707471Y71665533D01*
X17675343Y71657485D01*
X17642581Y71652625D01*
X17609500Y71651000D01*
X16934500Y71651000D01*
X16901419Y71652625D01*
X16868657Y71657485D01*
X16836529Y71665533D01*
X16805344Y71676691D01*
X16775404Y71690852D01*
X16746995Y71707879D01*
X16720392Y71727609D01*
X16695851Y71749851D01*
X16673609Y71774392D01*
X16653879Y71800995D01*
X16636852Y71829404D01*
X16622691Y71859344D01*
X16611533Y71890529D01*
X16603485Y71922657D01*
X16598625Y71955419D01*
X16597000Y71988500D01*
X16597000Y72763500D01*
X16598625Y72796581D01*
X16603485Y72829343D01*
X16611533Y72861471D01*
X16622691Y72892656D01*
X16636852Y72922596D01*
X16653879Y72951005D01*
X16673609Y72977608D01*
X16695851Y73002149D01*
X16720392Y73024391D01*
X16746995Y73044121D01*
X16775404Y73061148D01*
X16805344Y73075309D01*
X16836529Y73086467D01*
X16868657Y73094515D01*
X16901419Y73099375D01*
X16934500Y73101000D01*
X17609500Y73101000D01*
X17642581Y73099375D01*
X17642581Y73099375D01*
G37*
D23*
X17272000Y72376000D03*
D10*
G36*
X14467581Y71349375D02*
G01*
X14500343Y71344515D01*
X14532471Y71336467D01*
X14563656Y71325309D01*
X14593596Y71311148D01*
X14622005Y71294121D01*
X14648608Y71274391D01*
X14673149Y71252149D01*
X14695391Y71227608D01*
X14715121Y71201005D01*
X14732148Y71172596D01*
X14746309Y71142656D01*
X14757467Y71111471D01*
X14765515Y71079343D01*
X14770375Y71046581D01*
X14772000Y71013500D01*
X14772000Y70238500D01*
X14770375Y70205419D01*
X14765515Y70172657D01*
X14757467Y70140529D01*
X14746309Y70109344D01*
X14732148Y70079404D01*
X14715121Y70050995D01*
X14695391Y70024392D01*
X14673149Y69999851D01*
X14648608Y69977609D01*
X14622005Y69957879D01*
X14593596Y69940852D01*
X14563656Y69926691D01*
X14532471Y69915533D01*
X14500343Y69907485D01*
X14467581Y69902625D01*
X14434500Y69901000D01*
X13759500Y69901000D01*
X13726419Y69902625D01*
X13693657Y69907485D01*
X13661529Y69915533D01*
X13630344Y69926691D01*
X13600404Y69940852D01*
X13571995Y69957879D01*
X13545392Y69977609D01*
X13520851Y69999851D01*
X13498609Y70024392D01*
X13478879Y70050995D01*
X13461852Y70079404D01*
X13447691Y70109344D01*
X13436533Y70140529D01*
X13428485Y70172657D01*
X13423625Y70205419D01*
X13422000Y70238500D01*
X13422000Y71013500D01*
X13423625Y71046581D01*
X13428485Y71079343D01*
X13436533Y71111471D01*
X13447691Y71142656D01*
X13461852Y71172596D01*
X13478879Y71201005D01*
X13498609Y71227608D01*
X13520851Y71252149D01*
X13545392Y71274391D01*
X13571995Y71294121D01*
X13600404Y71311148D01*
X13630344Y71325309D01*
X13661529Y71336467D01*
X13693657Y71344515D01*
X13726419Y71349375D01*
X13759500Y71351000D01*
X14434500Y71351000D01*
X14467581Y71349375D01*
X14467581Y71349375D01*
G37*
D23*
X14097000Y70626000D03*
D10*
G36*
X14467581Y73099375D02*
G01*
X14500343Y73094515D01*
X14532471Y73086467D01*
X14563656Y73075309D01*
X14593596Y73061148D01*
X14622005Y73044121D01*
X14648608Y73024391D01*
X14673149Y73002149D01*
X14695391Y72977608D01*
X14715121Y72951005D01*
X14732148Y72922596D01*
X14746309Y72892656D01*
X14757467Y72861471D01*
X14765515Y72829343D01*
X14770375Y72796581D01*
X14772000Y72763500D01*
X14772000Y71988500D01*
X14770375Y71955419D01*
X14765515Y71922657D01*
X14757467Y71890529D01*
X14746309Y71859344D01*
X14732148Y71829404D01*
X14715121Y71800995D01*
X14695391Y71774392D01*
X14673149Y71749851D01*
X14648608Y71727609D01*
X14622005Y71707879D01*
X14593596Y71690852D01*
X14563656Y71676691D01*
X14532471Y71665533D01*
X14500343Y71657485D01*
X14467581Y71652625D01*
X14434500Y71651000D01*
X13759500Y71651000D01*
X13726419Y71652625D01*
X13693657Y71657485D01*
X13661529Y71665533D01*
X13630344Y71676691D01*
X13600404Y71690852D01*
X13571995Y71707879D01*
X13545392Y71727609D01*
X13520851Y71749851D01*
X13498609Y71774392D01*
X13478879Y71800995D01*
X13461852Y71829404D01*
X13447691Y71859344D01*
X13436533Y71890529D01*
X13428485Y71922657D01*
X13423625Y71955419D01*
X13422000Y71988500D01*
X13422000Y72763500D01*
X13423625Y72796581D01*
X13428485Y72829343D01*
X13436533Y72861471D01*
X13447691Y72892656D01*
X13461852Y72922596D01*
X13478879Y72951005D01*
X13498609Y72977608D01*
X13520851Y73002149D01*
X13545392Y73024391D01*
X13571995Y73044121D01*
X13600404Y73061148D01*
X13630344Y73075309D01*
X13661529Y73086467D01*
X13693657Y73094515D01*
X13726419Y73099375D01*
X13759500Y73101000D01*
X14434500Y73101000D01*
X14467581Y73099375D01*
X14467581Y73099375D01*
G37*
D23*
X14097000Y72376000D03*
D10*
G36*
X20817581Y69289375D02*
G01*
X20850343Y69284515D01*
X20882471Y69276467D01*
X20913656Y69265309D01*
X20943596Y69251148D01*
X20972005Y69234121D01*
X20998608Y69214391D01*
X21023149Y69192149D01*
X21045391Y69167608D01*
X21065121Y69141005D01*
X21082148Y69112596D01*
X21096309Y69082656D01*
X21107467Y69051471D01*
X21115515Y69019343D01*
X21120375Y68986581D01*
X21122000Y68953500D01*
X21122000Y68178500D01*
X21120375Y68145419D01*
X21115515Y68112657D01*
X21107467Y68080529D01*
X21096309Y68049344D01*
X21082148Y68019404D01*
X21065121Y67990995D01*
X21045391Y67964392D01*
X21023149Y67939851D01*
X20998608Y67917609D01*
X20972005Y67897879D01*
X20943596Y67880852D01*
X20913656Y67866691D01*
X20882471Y67855533D01*
X20850343Y67847485D01*
X20817581Y67842625D01*
X20784500Y67841000D01*
X20109500Y67841000D01*
X20076419Y67842625D01*
X20043657Y67847485D01*
X20011529Y67855533D01*
X19980344Y67866691D01*
X19950404Y67880852D01*
X19921995Y67897879D01*
X19895392Y67917609D01*
X19870851Y67939851D01*
X19848609Y67964392D01*
X19828879Y67990995D01*
X19811852Y68019404D01*
X19797691Y68049344D01*
X19786533Y68080529D01*
X19778485Y68112657D01*
X19773625Y68145419D01*
X19772000Y68178500D01*
X19772000Y68953500D01*
X19773625Y68986581D01*
X19778485Y69019343D01*
X19786533Y69051471D01*
X19797691Y69082656D01*
X19811852Y69112596D01*
X19828879Y69141005D01*
X19848609Y69167608D01*
X19870851Y69192149D01*
X19895392Y69214391D01*
X19921995Y69234121D01*
X19950404Y69251148D01*
X19980344Y69265309D01*
X20011529Y69276467D01*
X20043657Y69284515D01*
X20076419Y69289375D01*
X20109500Y69291000D01*
X20784500Y69291000D01*
X20817581Y69289375D01*
X20817581Y69289375D01*
G37*
D23*
X20447000Y68566000D03*
D10*
G36*
X20817581Y67539375D02*
G01*
X20850343Y67534515D01*
X20882471Y67526467D01*
X20913656Y67515309D01*
X20943596Y67501148D01*
X20972005Y67484121D01*
X20998608Y67464391D01*
X21023149Y67442149D01*
X21045391Y67417608D01*
X21065121Y67391005D01*
X21082148Y67362596D01*
X21096309Y67332656D01*
X21107467Y67301471D01*
X21115515Y67269343D01*
X21120375Y67236581D01*
X21122000Y67203500D01*
X21122000Y66428500D01*
X21120375Y66395419D01*
X21115515Y66362657D01*
X21107467Y66330529D01*
X21096309Y66299344D01*
X21082148Y66269404D01*
X21065121Y66240995D01*
X21045391Y66214392D01*
X21023149Y66189851D01*
X20998608Y66167609D01*
X20972005Y66147879D01*
X20943596Y66130852D01*
X20913656Y66116691D01*
X20882471Y66105533D01*
X20850343Y66097485D01*
X20817581Y66092625D01*
X20784500Y66091000D01*
X20109500Y66091000D01*
X20076419Y66092625D01*
X20043657Y66097485D01*
X20011529Y66105533D01*
X19980344Y66116691D01*
X19950404Y66130852D01*
X19921995Y66147879D01*
X19895392Y66167609D01*
X19870851Y66189851D01*
X19848609Y66214392D01*
X19828879Y66240995D01*
X19811852Y66269404D01*
X19797691Y66299344D01*
X19786533Y66330529D01*
X19778485Y66362657D01*
X19773625Y66395419D01*
X19772000Y66428500D01*
X19772000Y67203500D01*
X19773625Y67236581D01*
X19778485Y67269343D01*
X19786533Y67301471D01*
X19797691Y67332656D01*
X19811852Y67362596D01*
X19828879Y67391005D01*
X19848609Y67417608D01*
X19870851Y67442149D01*
X19895392Y67464391D01*
X19921995Y67484121D01*
X19950404Y67501148D01*
X19980344Y67515309D01*
X20011529Y67526467D01*
X20043657Y67534515D01*
X20076419Y67539375D01*
X20109500Y67541000D01*
X20784500Y67541000D01*
X20817581Y67539375D01*
X20817581Y67539375D01*
G37*
D23*
X20447000Y66816000D03*
D10*
G36*
X20817581Y65479375D02*
G01*
X20850343Y65474515D01*
X20882471Y65466467D01*
X20913656Y65455309D01*
X20943596Y65441148D01*
X20972005Y65424121D01*
X20998608Y65404391D01*
X21023149Y65382149D01*
X21045391Y65357608D01*
X21065121Y65331005D01*
X21082148Y65302596D01*
X21096309Y65272656D01*
X21107467Y65241471D01*
X21115515Y65209343D01*
X21120375Y65176581D01*
X21122000Y65143500D01*
X21122000Y64368500D01*
X21120375Y64335419D01*
X21115515Y64302657D01*
X21107467Y64270529D01*
X21096309Y64239344D01*
X21082148Y64209404D01*
X21065121Y64180995D01*
X21045391Y64154392D01*
X21023149Y64129851D01*
X20998608Y64107609D01*
X20972005Y64087879D01*
X20943596Y64070852D01*
X20913656Y64056691D01*
X20882471Y64045533D01*
X20850343Y64037485D01*
X20817581Y64032625D01*
X20784500Y64031000D01*
X20109500Y64031000D01*
X20076419Y64032625D01*
X20043657Y64037485D01*
X20011529Y64045533D01*
X19980344Y64056691D01*
X19950404Y64070852D01*
X19921995Y64087879D01*
X19895392Y64107609D01*
X19870851Y64129851D01*
X19848609Y64154392D01*
X19828879Y64180995D01*
X19811852Y64209404D01*
X19797691Y64239344D01*
X19786533Y64270529D01*
X19778485Y64302657D01*
X19773625Y64335419D01*
X19772000Y64368500D01*
X19772000Y65143500D01*
X19773625Y65176581D01*
X19778485Y65209343D01*
X19786533Y65241471D01*
X19797691Y65272656D01*
X19811852Y65302596D01*
X19828879Y65331005D01*
X19848609Y65357608D01*
X19870851Y65382149D01*
X19895392Y65404391D01*
X19921995Y65424121D01*
X19950404Y65441148D01*
X19980344Y65455309D01*
X20011529Y65466467D01*
X20043657Y65474515D01*
X20076419Y65479375D01*
X20109500Y65481000D01*
X20784500Y65481000D01*
X20817581Y65479375D01*
X20817581Y65479375D01*
G37*
D23*
X20447000Y64756000D03*
D10*
G36*
X20817581Y63729375D02*
G01*
X20850343Y63724515D01*
X20882471Y63716467D01*
X20913656Y63705309D01*
X20943596Y63691148D01*
X20972005Y63674121D01*
X20998608Y63654391D01*
X21023149Y63632149D01*
X21045391Y63607608D01*
X21065121Y63581005D01*
X21082148Y63552596D01*
X21096309Y63522656D01*
X21107467Y63491471D01*
X21115515Y63459343D01*
X21120375Y63426581D01*
X21122000Y63393500D01*
X21122000Y62618500D01*
X21120375Y62585419D01*
X21115515Y62552657D01*
X21107467Y62520529D01*
X21096309Y62489344D01*
X21082148Y62459404D01*
X21065121Y62430995D01*
X21045391Y62404392D01*
X21023149Y62379851D01*
X20998608Y62357609D01*
X20972005Y62337879D01*
X20943596Y62320852D01*
X20913656Y62306691D01*
X20882471Y62295533D01*
X20850343Y62287485D01*
X20817581Y62282625D01*
X20784500Y62281000D01*
X20109500Y62281000D01*
X20076419Y62282625D01*
X20043657Y62287485D01*
X20011529Y62295533D01*
X19980344Y62306691D01*
X19950404Y62320852D01*
X19921995Y62337879D01*
X19895392Y62357609D01*
X19870851Y62379851D01*
X19848609Y62404392D01*
X19828879Y62430995D01*
X19811852Y62459404D01*
X19797691Y62489344D01*
X19786533Y62520529D01*
X19778485Y62552657D01*
X19773625Y62585419D01*
X19772000Y62618500D01*
X19772000Y63393500D01*
X19773625Y63426581D01*
X19778485Y63459343D01*
X19786533Y63491471D01*
X19797691Y63522656D01*
X19811852Y63552596D01*
X19828879Y63581005D01*
X19848609Y63607608D01*
X19870851Y63632149D01*
X19895392Y63654391D01*
X19921995Y63674121D01*
X19950404Y63691148D01*
X19980344Y63705309D01*
X20011529Y63716467D01*
X20043657Y63724515D01*
X20076419Y63729375D01*
X20109500Y63731000D01*
X20784500Y63731000D01*
X20817581Y63729375D01*
X20817581Y63729375D01*
G37*
D23*
X20447000Y63006000D03*
D10*
G36*
X17642581Y69289375D02*
G01*
X17675343Y69284515D01*
X17707471Y69276467D01*
X17738656Y69265309D01*
X17768596Y69251148D01*
X17797005Y69234121D01*
X17823608Y69214391D01*
X17848149Y69192149D01*
X17870391Y69167608D01*
X17890121Y69141005D01*
X17907148Y69112596D01*
X17921309Y69082656D01*
X17932467Y69051471D01*
X17940515Y69019343D01*
X17945375Y68986581D01*
X17947000Y68953500D01*
X17947000Y68178500D01*
X17945375Y68145419D01*
X17940515Y68112657D01*
X17932467Y68080529D01*
X17921309Y68049344D01*
X17907148Y68019404D01*
X17890121Y67990995D01*
X17870391Y67964392D01*
X17848149Y67939851D01*
X17823608Y67917609D01*
X17797005Y67897879D01*
X17768596Y67880852D01*
X17738656Y67866691D01*
X17707471Y67855533D01*
X17675343Y67847485D01*
X17642581Y67842625D01*
X17609500Y67841000D01*
X16934500Y67841000D01*
X16901419Y67842625D01*
X16868657Y67847485D01*
X16836529Y67855533D01*
X16805344Y67866691D01*
X16775404Y67880852D01*
X16746995Y67897879D01*
X16720392Y67917609D01*
X16695851Y67939851D01*
X16673609Y67964392D01*
X16653879Y67990995D01*
X16636852Y68019404D01*
X16622691Y68049344D01*
X16611533Y68080529D01*
X16603485Y68112657D01*
X16598625Y68145419D01*
X16597000Y68178500D01*
X16597000Y68953500D01*
X16598625Y68986581D01*
X16603485Y69019343D01*
X16611533Y69051471D01*
X16622691Y69082656D01*
X16636852Y69112596D01*
X16653879Y69141005D01*
X16673609Y69167608D01*
X16695851Y69192149D01*
X16720392Y69214391D01*
X16746995Y69234121D01*
X16775404Y69251148D01*
X16805344Y69265309D01*
X16836529Y69276467D01*
X16868657Y69284515D01*
X16901419Y69289375D01*
X16934500Y69291000D01*
X17609500Y69291000D01*
X17642581Y69289375D01*
X17642581Y69289375D01*
G37*
D23*
X17272000Y68566000D03*
D10*
G36*
X17642581Y67539375D02*
G01*
X17675343Y67534515D01*
X17707471Y67526467D01*
X17738656Y67515309D01*
X17768596Y67501148D01*
X17797005Y67484121D01*
X17823608Y67464391D01*
X17848149Y67442149D01*
X17870391Y67417608D01*
X17890121Y67391005D01*
X17907148Y67362596D01*
X17921309Y67332656D01*
X17932467Y67301471D01*
X17940515Y67269343D01*
X17945375Y67236581D01*
X17947000Y67203500D01*
X17947000Y66428500D01*
X17945375Y66395419D01*
X17940515Y66362657D01*
X17932467Y66330529D01*
X17921309Y66299344D01*
X17907148Y66269404D01*
X17890121Y66240995D01*
X17870391Y66214392D01*
X17848149Y66189851D01*
X17823608Y66167609D01*
X17797005Y66147879D01*
X17768596Y66130852D01*
X17738656Y66116691D01*
X17707471Y66105533D01*
X17675343Y66097485D01*
X17642581Y66092625D01*
X17609500Y66091000D01*
X16934500Y66091000D01*
X16901419Y66092625D01*
X16868657Y66097485D01*
X16836529Y66105533D01*
X16805344Y66116691D01*
X16775404Y66130852D01*
X16746995Y66147879D01*
X16720392Y66167609D01*
X16695851Y66189851D01*
X16673609Y66214392D01*
X16653879Y66240995D01*
X16636852Y66269404D01*
X16622691Y66299344D01*
X16611533Y66330529D01*
X16603485Y66362657D01*
X16598625Y66395419D01*
X16597000Y66428500D01*
X16597000Y67203500D01*
X16598625Y67236581D01*
X16603485Y67269343D01*
X16611533Y67301471D01*
X16622691Y67332656D01*
X16636852Y67362596D01*
X16653879Y67391005D01*
X16673609Y67417608D01*
X16695851Y67442149D01*
X16720392Y67464391D01*
X16746995Y67484121D01*
X16775404Y67501148D01*
X16805344Y67515309D01*
X16836529Y67526467D01*
X16868657Y67534515D01*
X16901419Y67539375D01*
X16934500Y67541000D01*
X17609500Y67541000D01*
X17642581Y67539375D01*
X17642581Y67539375D01*
G37*
D23*
X17272000Y66816000D03*
D10*
G36*
X17642581Y65479375D02*
G01*
X17675343Y65474515D01*
X17707471Y65466467D01*
X17738656Y65455309D01*
X17768596Y65441148D01*
X17797005Y65424121D01*
X17823608Y65404391D01*
X17848149Y65382149D01*
X17870391Y65357608D01*
X17890121Y65331005D01*
X17907148Y65302596D01*
X17921309Y65272656D01*
X17932467Y65241471D01*
X17940515Y65209343D01*
X17945375Y65176581D01*
X17947000Y65143500D01*
X17947000Y64368500D01*
X17945375Y64335419D01*
X17940515Y64302657D01*
X17932467Y64270529D01*
X17921309Y64239344D01*
X17907148Y64209404D01*
X17890121Y64180995D01*
X17870391Y64154392D01*
X17848149Y64129851D01*
X17823608Y64107609D01*
X17797005Y64087879D01*
X17768596Y64070852D01*
X17738656Y64056691D01*
X17707471Y64045533D01*
X17675343Y64037485D01*
X17642581Y64032625D01*
X17609500Y64031000D01*
X16934500Y64031000D01*
X16901419Y64032625D01*
X16868657Y64037485D01*
X16836529Y64045533D01*
X16805344Y64056691D01*
X16775404Y64070852D01*
X16746995Y64087879D01*
X16720392Y64107609D01*
X16695851Y64129851D01*
X16673609Y64154392D01*
X16653879Y64180995D01*
X16636852Y64209404D01*
X16622691Y64239344D01*
X16611533Y64270529D01*
X16603485Y64302657D01*
X16598625Y64335419D01*
X16597000Y64368500D01*
X16597000Y65143500D01*
X16598625Y65176581D01*
X16603485Y65209343D01*
X16611533Y65241471D01*
X16622691Y65272656D01*
X16636852Y65302596D01*
X16653879Y65331005D01*
X16673609Y65357608D01*
X16695851Y65382149D01*
X16720392Y65404391D01*
X16746995Y65424121D01*
X16775404Y65441148D01*
X16805344Y65455309D01*
X16836529Y65466467D01*
X16868657Y65474515D01*
X16901419Y65479375D01*
X16934500Y65481000D01*
X17609500Y65481000D01*
X17642581Y65479375D01*
X17642581Y65479375D01*
G37*
D23*
X17272000Y64756000D03*
D10*
G36*
X17642581Y63729375D02*
G01*
X17675343Y63724515D01*
X17707471Y63716467D01*
X17738656Y63705309D01*
X17768596Y63691148D01*
X17797005Y63674121D01*
X17823608Y63654391D01*
X17848149Y63632149D01*
X17870391Y63607608D01*
X17890121Y63581005D01*
X17907148Y63552596D01*
X17921309Y63522656D01*
X17932467Y63491471D01*
X17940515Y63459343D01*
X17945375Y63426581D01*
X17947000Y63393500D01*
X17947000Y62618500D01*
X17945375Y62585419D01*
X17940515Y62552657D01*
X17932467Y62520529D01*
X17921309Y62489344D01*
X17907148Y62459404D01*
X17890121Y62430995D01*
X17870391Y62404392D01*
X17848149Y62379851D01*
X17823608Y62357609D01*
X17797005Y62337879D01*
X17768596Y62320852D01*
X17738656Y62306691D01*
X17707471Y62295533D01*
X17675343Y62287485D01*
X17642581Y62282625D01*
X17609500Y62281000D01*
X16934500Y62281000D01*
X16901419Y62282625D01*
X16868657Y62287485D01*
X16836529Y62295533D01*
X16805344Y62306691D01*
X16775404Y62320852D01*
X16746995Y62337879D01*
X16720392Y62357609D01*
X16695851Y62379851D01*
X16673609Y62404392D01*
X16653879Y62430995D01*
X16636852Y62459404D01*
X16622691Y62489344D01*
X16611533Y62520529D01*
X16603485Y62552657D01*
X16598625Y62585419D01*
X16597000Y62618500D01*
X16597000Y63393500D01*
X16598625Y63426581D01*
X16603485Y63459343D01*
X16611533Y63491471D01*
X16622691Y63522656D01*
X16636852Y63552596D01*
X16653879Y63581005D01*
X16673609Y63607608D01*
X16695851Y63632149D01*
X16720392Y63654391D01*
X16746995Y63674121D01*
X16775404Y63691148D01*
X16805344Y63705309D01*
X16836529Y63716467D01*
X16868657Y63724515D01*
X16901419Y63729375D01*
X16934500Y63731000D01*
X17609500Y63731000D01*
X17642581Y63729375D01*
X17642581Y63729375D01*
G37*
D23*
X17272000Y63006000D03*
D10*
G36*
X14467581Y69289375D02*
G01*
X14500343Y69284515D01*
X14532471Y69276467D01*
X14563656Y69265309D01*
X14593596Y69251148D01*
X14622005Y69234121D01*
X14648608Y69214391D01*
X14673149Y69192149D01*
X14695391Y69167608D01*
X14715121Y69141005D01*
X14732148Y69112596D01*
X14746309Y69082656D01*
X14757467Y69051471D01*
X14765515Y69019343D01*
X14770375Y68986581D01*
X14772000Y68953500D01*
X14772000Y68178500D01*
X14770375Y68145419D01*
X14765515Y68112657D01*
X14757467Y68080529D01*
X14746309Y68049344D01*
X14732148Y68019404D01*
X14715121Y67990995D01*
X14695391Y67964392D01*
X14673149Y67939851D01*
X14648608Y67917609D01*
X14622005Y67897879D01*
X14593596Y67880852D01*
X14563656Y67866691D01*
X14532471Y67855533D01*
X14500343Y67847485D01*
X14467581Y67842625D01*
X14434500Y67841000D01*
X13759500Y67841000D01*
X13726419Y67842625D01*
X13693657Y67847485D01*
X13661529Y67855533D01*
X13630344Y67866691D01*
X13600404Y67880852D01*
X13571995Y67897879D01*
X13545392Y67917609D01*
X13520851Y67939851D01*
X13498609Y67964392D01*
X13478879Y67990995D01*
X13461852Y68019404D01*
X13447691Y68049344D01*
X13436533Y68080529D01*
X13428485Y68112657D01*
X13423625Y68145419D01*
X13422000Y68178500D01*
X13422000Y68953500D01*
X13423625Y68986581D01*
X13428485Y69019343D01*
X13436533Y69051471D01*
X13447691Y69082656D01*
X13461852Y69112596D01*
X13478879Y69141005D01*
X13498609Y69167608D01*
X13520851Y69192149D01*
X13545392Y69214391D01*
X13571995Y69234121D01*
X13600404Y69251148D01*
X13630344Y69265309D01*
X13661529Y69276467D01*
X13693657Y69284515D01*
X13726419Y69289375D01*
X13759500Y69291000D01*
X14434500Y69291000D01*
X14467581Y69289375D01*
X14467581Y69289375D01*
G37*
D23*
X14097000Y68566000D03*
D10*
G36*
X14467581Y67539375D02*
G01*
X14500343Y67534515D01*
X14532471Y67526467D01*
X14563656Y67515309D01*
X14593596Y67501148D01*
X14622005Y67484121D01*
X14648608Y67464391D01*
X14673149Y67442149D01*
X14695391Y67417608D01*
X14715121Y67391005D01*
X14732148Y67362596D01*
X14746309Y67332656D01*
X14757467Y67301471D01*
X14765515Y67269343D01*
X14770375Y67236581D01*
X14772000Y67203500D01*
X14772000Y66428500D01*
X14770375Y66395419D01*
X14765515Y66362657D01*
X14757467Y66330529D01*
X14746309Y66299344D01*
X14732148Y66269404D01*
X14715121Y66240995D01*
X14695391Y66214392D01*
X14673149Y66189851D01*
X14648608Y66167609D01*
X14622005Y66147879D01*
X14593596Y66130852D01*
X14563656Y66116691D01*
X14532471Y66105533D01*
X14500343Y66097485D01*
X14467581Y66092625D01*
X14434500Y66091000D01*
X13759500Y66091000D01*
X13726419Y66092625D01*
X13693657Y66097485D01*
X13661529Y66105533D01*
X13630344Y66116691D01*
X13600404Y66130852D01*
X13571995Y66147879D01*
X13545392Y66167609D01*
X13520851Y66189851D01*
X13498609Y66214392D01*
X13478879Y66240995D01*
X13461852Y66269404D01*
X13447691Y66299344D01*
X13436533Y66330529D01*
X13428485Y66362657D01*
X13423625Y66395419D01*
X13422000Y66428500D01*
X13422000Y67203500D01*
X13423625Y67236581D01*
X13428485Y67269343D01*
X13436533Y67301471D01*
X13447691Y67332656D01*
X13461852Y67362596D01*
X13478879Y67391005D01*
X13498609Y67417608D01*
X13520851Y67442149D01*
X13545392Y67464391D01*
X13571995Y67484121D01*
X13600404Y67501148D01*
X13630344Y67515309D01*
X13661529Y67526467D01*
X13693657Y67534515D01*
X13726419Y67539375D01*
X13759500Y67541000D01*
X14434500Y67541000D01*
X14467581Y67539375D01*
X14467581Y67539375D01*
G37*
D23*
X14097000Y66816000D03*
D10*
G36*
X14467581Y65479375D02*
G01*
X14500343Y65474515D01*
X14532471Y65466467D01*
X14563656Y65455309D01*
X14593596Y65441148D01*
X14622005Y65424121D01*
X14648608Y65404391D01*
X14673149Y65382149D01*
X14695391Y65357608D01*
X14715121Y65331005D01*
X14732148Y65302596D01*
X14746309Y65272656D01*
X14757467Y65241471D01*
X14765515Y65209343D01*
X14770375Y65176581D01*
X14772000Y65143500D01*
X14772000Y64368500D01*
X14770375Y64335419D01*
X14765515Y64302657D01*
X14757467Y64270529D01*
X14746309Y64239344D01*
X14732148Y64209404D01*
X14715121Y64180995D01*
X14695391Y64154392D01*
X14673149Y64129851D01*
X14648608Y64107609D01*
X14622005Y64087879D01*
X14593596Y64070852D01*
X14563656Y64056691D01*
X14532471Y64045533D01*
X14500343Y64037485D01*
X14467581Y64032625D01*
X14434500Y64031000D01*
X13759500Y64031000D01*
X13726419Y64032625D01*
X13693657Y64037485D01*
X13661529Y64045533D01*
X13630344Y64056691D01*
X13600404Y64070852D01*
X13571995Y64087879D01*
X13545392Y64107609D01*
X13520851Y64129851D01*
X13498609Y64154392D01*
X13478879Y64180995D01*
X13461852Y64209404D01*
X13447691Y64239344D01*
X13436533Y64270529D01*
X13428485Y64302657D01*
X13423625Y64335419D01*
X13422000Y64368500D01*
X13422000Y65143500D01*
X13423625Y65176581D01*
X13428485Y65209343D01*
X13436533Y65241471D01*
X13447691Y65272656D01*
X13461852Y65302596D01*
X13478879Y65331005D01*
X13498609Y65357608D01*
X13520851Y65382149D01*
X13545392Y65404391D01*
X13571995Y65424121D01*
X13600404Y65441148D01*
X13630344Y65455309D01*
X13661529Y65466467D01*
X13693657Y65474515D01*
X13726419Y65479375D01*
X13759500Y65481000D01*
X14434500Y65481000D01*
X14467581Y65479375D01*
X14467581Y65479375D01*
G37*
D23*
X14097000Y64756000D03*
D10*
G36*
X14467581Y63729375D02*
G01*
X14500343Y63724515D01*
X14532471Y63716467D01*
X14563656Y63705309D01*
X14593596Y63691148D01*
X14622005Y63674121D01*
X14648608Y63654391D01*
X14673149Y63632149D01*
X14695391Y63607608D01*
X14715121Y63581005D01*
X14732148Y63552596D01*
X14746309Y63522656D01*
X14757467Y63491471D01*
X14765515Y63459343D01*
X14770375Y63426581D01*
X14772000Y63393500D01*
X14772000Y62618500D01*
X14770375Y62585419D01*
X14765515Y62552657D01*
X14757467Y62520529D01*
X14746309Y62489344D01*
X14732148Y62459404D01*
X14715121Y62430995D01*
X14695391Y62404392D01*
X14673149Y62379851D01*
X14648608Y62357609D01*
X14622005Y62337879D01*
X14593596Y62320852D01*
X14563656Y62306691D01*
X14532471Y62295533D01*
X14500343Y62287485D01*
X14467581Y62282625D01*
X14434500Y62281000D01*
X13759500Y62281000D01*
X13726419Y62282625D01*
X13693657Y62287485D01*
X13661529Y62295533D01*
X13630344Y62306691D01*
X13600404Y62320852D01*
X13571995Y62337879D01*
X13545392Y62357609D01*
X13520851Y62379851D01*
X13498609Y62404392D01*
X13478879Y62430995D01*
X13461852Y62459404D01*
X13447691Y62489344D01*
X13436533Y62520529D01*
X13428485Y62552657D01*
X13423625Y62585419D01*
X13422000Y62618500D01*
X13422000Y63393500D01*
X13423625Y63426581D01*
X13428485Y63459343D01*
X13436533Y63491471D01*
X13447691Y63522656D01*
X13461852Y63552596D01*
X13478879Y63581005D01*
X13498609Y63607608D01*
X13520851Y63632149D01*
X13545392Y63654391D01*
X13571995Y63674121D01*
X13600404Y63691148D01*
X13630344Y63705309D01*
X13661529Y63716467D01*
X13693657Y63724515D01*
X13726419Y63729375D01*
X13759500Y63731000D01*
X14434500Y63731000D01*
X14467581Y63729375D01*
X14467581Y63729375D01*
G37*
D23*
X14097000Y63006000D03*
D10*
G36*
X45455581Y41603375D02*
G01*
X45488343Y41598515D01*
X45520471Y41590467D01*
X45551656Y41579309D01*
X45581596Y41565148D01*
X45610005Y41548121D01*
X45636608Y41528391D01*
X45661149Y41506149D01*
X45683391Y41481608D01*
X45703121Y41455005D01*
X45720148Y41426596D01*
X45734309Y41396656D01*
X45745467Y41365471D01*
X45753515Y41333343D01*
X45758375Y41300581D01*
X45760000Y41267500D01*
X45760000Y40492500D01*
X45758375Y40459419D01*
X45753515Y40426657D01*
X45745467Y40394529D01*
X45734309Y40363344D01*
X45720148Y40333404D01*
X45703121Y40304995D01*
X45683391Y40278392D01*
X45661149Y40253851D01*
X45636608Y40231609D01*
X45610005Y40211879D01*
X45581596Y40194852D01*
X45551656Y40180691D01*
X45520471Y40169533D01*
X45488343Y40161485D01*
X45455581Y40156625D01*
X45422500Y40155000D01*
X44747500Y40155000D01*
X44714419Y40156625D01*
X44681657Y40161485D01*
X44649529Y40169533D01*
X44618344Y40180691D01*
X44588404Y40194852D01*
X44559995Y40211879D01*
X44533392Y40231609D01*
X44508851Y40253851D01*
X44486609Y40278392D01*
X44466879Y40304995D01*
X44449852Y40333404D01*
X44435691Y40363344D01*
X44424533Y40394529D01*
X44416485Y40426657D01*
X44411625Y40459419D01*
X44410000Y40492500D01*
X44410000Y41267500D01*
X44411625Y41300581D01*
X44416485Y41333343D01*
X44424533Y41365471D01*
X44435691Y41396656D01*
X44449852Y41426596D01*
X44466879Y41455005D01*
X44486609Y41481608D01*
X44508851Y41506149D01*
X44533392Y41528391D01*
X44559995Y41548121D01*
X44588404Y41565148D01*
X44618344Y41579309D01*
X44649529Y41590467D01*
X44681657Y41598515D01*
X44714419Y41603375D01*
X44747500Y41605000D01*
X45422500Y41605000D01*
X45455581Y41603375D01*
X45455581Y41603375D01*
G37*
D23*
X45085000Y40880000D03*
D10*
G36*
X45455581Y39853375D02*
G01*
X45488343Y39848515D01*
X45520471Y39840467D01*
X45551656Y39829309D01*
X45581596Y39815148D01*
X45610005Y39798121D01*
X45636608Y39778391D01*
X45661149Y39756149D01*
X45683391Y39731608D01*
X45703121Y39705005D01*
X45720148Y39676596D01*
X45734309Y39646656D01*
X45745467Y39615471D01*
X45753515Y39583343D01*
X45758375Y39550581D01*
X45760000Y39517500D01*
X45760000Y38742500D01*
X45758375Y38709419D01*
X45753515Y38676657D01*
X45745467Y38644529D01*
X45734309Y38613344D01*
X45720148Y38583404D01*
X45703121Y38554995D01*
X45683391Y38528392D01*
X45661149Y38503851D01*
X45636608Y38481609D01*
X45610005Y38461879D01*
X45581596Y38444852D01*
X45551656Y38430691D01*
X45520471Y38419533D01*
X45488343Y38411485D01*
X45455581Y38406625D01*
X45422500Y38405000D01*
X44747500Y38405000D01*
X44714419Y38406625D01*
X44681657Y38411485D01*
X44649529Y38419533D01*
X44618344Y38430691D01*
X44588404Y38444852D01*
X44559995Y38461879D01*
X44533392Y38481609D01*
X44508851Y38503851D01*
X44486609Y38528392D01*
X44466879Y38554995D01*
X44449852Y38583404D01*
X44435691Y38613344D01*
X44424533Y38644529D01*
X44416485Y38676657D01*
X44411625Y38709419D01*
X44410000Y38742500D01*
X44410000Y39517500D01*
X44411625Y39550581D01*
X44416485Y39583343D01*
X44424533Y39615471D01*
X44435691Y39646656D01*
X44449852Y39676596D01*
X44466879Y39705005D01*
X44486609Y39731608D01*
X44508851Y39756149D01*
X44533392Y39778391D01*
X44559995Y39798121D01*
X44588404Y39815148D01*
X44618344Y39829309D01*
X44649529Y39840467D01*
X44681657Y39848515D01*
X44714419Y39853375D01*
X44747500Y39855000D01*
X45422500Y39855000D01*
X45455581Y39853375D01*
X45455581Y39853375D01*
G37*
D23*
X45085000Y39130000D03*
D10*
G36*
X42280581Y41603375D02*
G01*
X42313343Y41598515D01*
X42345471Y41590467D01*
X42376656Y41579309D01*
X42406596Y41565148D01*
X42435005Y41548121D01*
X42461608Y41528391D01*
X42486149Y41506149D01*
X42508391Y41481608D01*
X42528121Y41455005D01*
X42545148Y41426596D01*
X42559309Y41396656D01*
X42570467Y41365471D01*
X42578515Y41333343D01*
X42583375Y41300581D01*
X42585000Y41267500D01*
X42585000Y40492500D01*
X42583375Y40459419D01*
X42578515Y40426657D01*
X42570467Y40394529D01*
X42559309Y40363344D01*
X42545148Y40333404D01*
X42528121Y40304995D01*
X42508391Y40278392D01*
X42486149Y40253851D01*
X42461608Y40231609D01*
X42435005Y40211879D01*
X42406596Y40194852D01*
X42376656Y40180691D01*
X42345471Y40169533D01*
X42313343Y40161485D01*
X42280581Y40156625D01*
X42247500Y40155000D01*
X41572500Y40155000D01*
X41539419Y40156625D01*
X41506657Y40161485D01*
X41474529Y40169533D01*
X41443344Y40180691D01*
X41413404Y40194852D01*
X41384995Y40211879D01*
X41358392Y40231609D01*
X41333851Y40253851D01*
X41311609Y40278392D01*
X41291879Y40304995D01*
X41274852Y40333404D01*
X41260691Y40363344D01*
X41249533Y40394529D01*
X41241485Y40426657D01*
X41236625Y40459419D01*
X41235000Y40492500D01*
X41235000Y41267500D01*
X41236625Y41300581D01*
X41241485Y41333343D01*
X41249533Y41365471D01*
X41260691Y41396656D01*
X41274852Y41426596D01*
X41291879Y41455005D01*
X41311609Y41481608D01*
X41333851Y41506149D01*
X41358392Y41528391D01*
X41384995Y41548121D01*
X41413404Y41565148D01*
X41443344Y41579309D01*
X41474529Y41590467D01*
X41506657Y41598515D01*
X41539419Y41603375D01*
X41572500Y41605000D01*
X42247500Y41605000D01*
X42280581Y41603375D01*
X42280581Y41603375D01*
G37*
D23*
X41910000Y40880000D03*
D10*
G36*
X42280581Y39853375D02*
G01*
X42313343Y39848515D01*
X42345471Y39840467D01*
X42376656Y39829309D01*
X42406596Y39815148D01*
X42435005Y39798121D01*
X42461608Y39778391D01*
X42486149Y39756149D01*
X42508391Y39731608D01*
X42528121Y39705005D01*
X42545148Y39676596D01*
X42559309Y39646656D01*
X42570467Y39615471D01*
X42578515Y39583343D01*
X42583375Y39550581D01*
X42585000Y39517500D01*
X42585000Y38742500D01*
X42583375Y38709419D01*
X42578515Y38676657D01*
X42570467Y38644529D01*
X42559309Y38613344D01*
X42545148Y38583404D01*
X42528121Y38554995D01*
X42508391Y38528392D01*
X42486149Y38503851D01*
X42461608Y38481609D01*
X42435005Y38461879D01*
X42406596Y38444852D01*
X42376656Y38430691D01*
X42345471Y38419533D01*
X42313343Y38411485D01*
X42280581Y38406625D01*
X42247500Y38405000D01*
X41572500Y38405000D01*
X41539419Y38406625D01*
X41506657Y38411485D01*
X41474529Y38419533D01*
X41443344Y38430691D01*
X41413404Y38444852D01*
X41384995Y38461879D01*
X41358392Y38481609D01*
X41333851Y38503851D01*
X41311609Y38528392D01*
X41291879Y38554995D01*
X41274852Y38583404D01*
X41260691Y38613344D01*
X41249533Y38644529D01*
X41241485Y38676657D01*
X41236625Y38709419D01*
X41235000Y38742500D01*
X41235000Y39517500D01*
X41236625Y39550581D01*
X41241485Y39583343D01*
X41249533Y39615471D01*
X41260691Y39646656D01*
X41274852Y39676596D01*
X41291879Y39705005D01*
X41311609Y39731608D01*
X41333851Y39756149D01*
X41358392Y39778391D01*
X41384995Y39798121D01*
X41413404Y39815148D01*
X41443344Y39829309D01*
X41474529Y39840467D01*
X41506657Y39848515D01*
X41539419Y39853375D01*
X41572500Y39855000D01*
X42247500Y39855000D01*
X42280581Y39853375D01*
X42280581Y39853375D01*
G37*
D23*
X41910000Y39130000D03*
D10*
G36*
X29580581Y41603375D02*
G01*
X29613343Y41598515D01*
X29645471Y41590467D01*
X29676656Y41579309D01*
X29706596Y41565148D01*
X29735005Y41548121D01*
X29761608Y41528391D01*
X29786149Y41506149D01*
X29808391Y41481608D01*
X29828121Y41455005D01*
X29845148Y41426596D01*
X29859309Y41396656D01*
X29870467Y41365471D01*
X29878515Y41333343D01*
X29883375Y41300581D01*
X29885000Y41267500D01*
X29885000Y40492500D01*
X29883375Y40459419D01*
X29878515Y40426657D01*
X29870467Y40394529D01*
X29859309Y40363344D01*
X29845148Y40333404D01*
X29828121Y40304995D01*
X29808391Y40278392D01*
X29786149Y40253851D01*
X29761608Y40231609D01*
X29735005Y40211879D01*
X29706596Y40194852D01*
X29676656Y40180691D01*
X29645471Y40169533D01*
X29613343Y40161485D01*
X29580581Y40156625D01*
X29547500Y40155000D01*
X28872500Y40155000D01*
X28839419Y40156625D01*
X28806657Y40161485D01*
X28774529Y40169533D01*
X28743344Y40180691D01*
X28713404Y40194852D01*
X28684995Y40211879D01*
X28658392Y40231609D01*
X28633851Y40253851D01*
X28611609Y40278392D01*
X28591879Y40304995D01*
X28574852Y40333404D01*
X28560691Y40363344D01*
X28549533Y40394529D01*
X28541485Y40426657D01*
X28536625Y40459419D01*
X28535000Y40492500D01*
X28535000Y41267500D01*
X28536625Y41300581D01*
X28541485Y41333343D01*
X28549533Y41365471D01*
X28560691Y41396656D01*
X28574852Y41426596D01*
X28591879Y41455005D01*
X28611609Y41481608D01*
X28633851Y41506149D01*
X28658392Y41528391D01*
X28684995Y41548121D01*
X28713404Y41565148D01*
X28743344Y41579309D01*
X28774529Y41590467D01*
X28806657Y41598515D01*
X28839419Y41603375D01*
X28872500Y41605000D01*
X29547500Y41605000D01*
X29580581Y41603375D01*
X29580581Y41603375D01*
G37*
D23*
X29210000Y40880000D03*
D10*
G36*
X29580581Y39853375D02*
G01*
X29613343Y39848515D01*
X29645471Y39840467D01*
X29676656Y39829309D01*
X29706596Y39815148D01*
X29735005Y39798121D01*
X29761608Y39778391D01*
X29786149Y39756149D01*
X29808391Y39731608D01*
X29828121Y39705005D01*
X29845148Y39676596D01*
X29859309Y39646656D01*
X29870467Y39615471D01*
X29878515Y39583343D01*
X29883375Y39550581D01*
X29885000Y39517500D01*
X29885000Y38742500D01*
X29883375Y38709419D01*
X29878515Y38676657D01*
X29870467Y38644529D01*
X29859309Y38613344D01*
X29845148Y38583404D01*
X29828121Y38554995D01*
X29808391Y38528392D01*
X29786149Y38503851D01*
X29761608Y38481609D01*
X29735005Y38461879D01*
X29706596Y38444852D01*
X29676656Y38430691D01*
X29645471Y38419533D01*
X29613343Y38411485D01*
X29580581Y38406625D01*
X29547500Y38405000D01*
X28872500Y38405000D01*
X28839419Y38406625D01*
X28806657Y38411485D01*
X28774529Y38419533D01*
X28743344Y38430691D01*
X28713404Y38444852D01*
X28684995Y38461879D01*
X28658392Y38481609D01*
X28633851Y38503851D01*
X28611609Y38528392D01*
X28591879Y38554995D01*
X28574852Y38583404D01*
X28560691Y38613344D01*
X28549533Y38644529D01*
X28541485Y38676657D01*
X28536625Y38709419D01*
X28535000Y38742500D01*
X28535000Y39517500D01*
X28536625Y39550581D01*
X28541485Y39583343D01*
X28549533Y39615471D01*
X28560691Y39646656D01*
X28574852Y39676596D01*
X28591879Y39705005D01*
X28611609Y39731608D01*
X28633851Y39756149D01*
X28658392Y39778391D01*
X28684995Y39798121D01*
X28713404Y39815148D01*
X28743344Y39829309D01*
X28774529Y39840467D01*
X28806657Y39848515D01*
X28839419Y39853375D01*
X28872500Y39855000D01*
X29547500Y39855000D01*
X29580581Y39853375D01*
X29580581Y39853375D01*
G37*
D23*
X29210000Y39130000D03*
D10*
G36*
X26405581Y41603375D02*
G01*
X26438343Y41598515D01*
X26470471Y41590467D01*
X26501656Y41579309D01*
X26531596Y41565148D01*
X26560005Y41548121D01*
X26586608Y41528391D01*
X26611149Y41506149D01*
X26633391Y41481608D01*
X26653121Y41455005D01*
X26670148Y41426596D01*
X26684309Y41396656D01*
X26695467Y41365471D01*
X26703515Y41333343D01*
X26708375Y41300581D01*
X26710000Y41267500D01*
X26710000Y40492500D01*
X26708375Y40459419D01*
X26703515Y40426657D01*
X26695467Y40394529D01*
X26684309Y40363344D01*
X26670148Y40333404D01*
X26653121Y40304995D01*
X26633391Y40278392D01*
X26611149Y40253851D01*
X26586608Y40231609D01*
X26560005Y40211879D01*
X26531596Y40194852D01*
X26501656Y40180691D01*
X26470471Y40169533D01*
X26438343Y40161485D01*
X26405581Y40156625D01*
X26372500Y40155000D01*
X25697500Y40155000D01*
X25664419Y40156625D01*
X25631657Y40161485D01*
X25599529Y40169533D01*
X25568344Y40180691D01*
X25538404Y40194852D01*
X25509995Y40211879D01*
X25483392Y40231609D01*
X25458851Y40253851D01*
X25436609Y40278392D01*
X25416879Y40304995D01*
X25399852Y40333404D01*
X25385691Y40363344D01*
X25374533Y40394529D01*
X25366485Y40426657D01*
X25361625Y40459419D01*
X25360000Y40492500D01*
X25360000Y41267500D01*
X25361625Y41300581D01*
X25366485Y41333343D01*
X25374533Y41365471D01*
X25385691Y41396656D01*
X25399852Y41426596D01*
X25416879Y41455005D01*
X25436609Y41481608D01*
X25458851Y41506149D01*
X25483392Y41528391D01*
X25509995Y41548121D01*
X25538404Y41565148D01*
X25568344Y41579309D01*
X25599529Y41590467D01*
X25631657Y41598515D01*
X25664419Y41603375D01*
X25697500Y41605000D01*
X26372500Y41605000D01*
X26405581Y41603375D01*
X26405581Y41603375D01*
G37*
D23*
X26035000Y40880000D03*
D10*
G36*
X26405581Y39853375D02*
G01*
X26438343Y39848515D01*
X26470471Y39840467D01*
X26501656Y39829309D01*
X26531596Y39815148D01*
X26560005Y39798121D01*
X26586608Y39778391D01*
X26611149Y39756149D01*
X26633391Y39731608D01*
X26653121Y39705005D01*
X26670148Y39676596D01*
X26684309Y39646656D01*
X26695467Y39615471D01*
X26703515Y39583343D01*
X26708375Y39550581D01*
X26710000Y39517500D01*
X26710000Y38742500D01*
X26708375Y38709419D01*
X26703515Y38676657D01*
X26695467Y38644529D01*
X26684309Y38613344D01*
X26670148Y38583404D01*
X26653121Y38554995D01*
X26633391Y38528392D01*
X26611149Y38503851D01*
X26586608Y38481609D01*
X26560005Y38461879D01*
X26531596Y38444852D01*
X26501656Y38430691D01*
X26470471Y38419533D01*
X26438343Y38411485D01*
X26405581Y38406625D01*
X26372500Y38405000D01*
X25697500Y38405000D01*
X25664419Y38406625D01*
X25631657Y38411485D01*
X25599529Y38419533D01*
X25568344Y38430691D01*
X25538404Y38444852D01*
X25509995Y38461879D01*
X25483392Y38481609D01*
X25458851Y38503851D01*
X25436609Y38528392D01*
X25416879Y38554995D01*
X25399852Y38583404D01*
X25385691Y38613344D01*
X25374533Y38644529D01*
X25366485Y38676657D01*
X25361625Y38709419D01*
X25360000Y38742500D01*
X25360000Y39517500D01*
X25361625Y39550581D01*
X25366485Y39583343D01*
X25374533Y39615471D01*
X25385691Y39646656D01*
X25399852Y39676596D01*
X25416879Y39705005D01*
X25436609Y39731608D01*
X25458851Y39756149D01*
X25483392Y39778391D01*
X25509995Y39798121D01*
X25538404Y39815148D01*
X25568344Y39829309D01*
X25599529Y39840467D01*
X25631657Y39848515D01*
X25664419Y39853375D01*
X25697500Y39855000D01*
X26372500Y39855000D01*
X26405581Y39853375D01*
X26405581Y39853375D01*
G37*
D23*
X26035000Y39130000D03*
D10*
G36*
X13705581Y41603375D02*
G01*
X13738343Y41598515D01*
X13770471Y41590467D01*
X13801656Y41579309D01*
X13831596Y41565148D01*
X13860005Y41548121D01*
X13886608Y41528391D01*
X13911149Y41506149D01*
X13933391Y41481608D01*
X13953121Y41455005D01*
X13970148Y41426596D01*
X13984309Y41396656D01*
X13995467Y41365471D01*
X14003515Y41333343D01*
X14008375Y41300581D01*
X14010000Y41267500D01*
X14010000Y40492500D01*
X14008375Y40459419D01*
X14003515Y40426657D01*
X13995467Y40394529D01*
X13984309Y40363344D01*
X13970148Y40333404D01*
X13953121Y40304995D01*
X13933391Y40278392D01*
X13911149Y40253851D01*
X13886608Y40231609D01*
X13860005Y40211879D01*
X13831596Y40194852D01*
X13801656Y40180691D01*
X13770471Y40169533D01*
X13738343Y40161485D01*
X13705581Y40156625D01*
X13672500Y40155000D01*
X12997500Y40155000D01*
X12964419Y40156625D01*
X12931657Y40161485D01*
X12899529Y40169533D01*
X12868344Y40180691D01*
X12838404Y40194852D01*
X12809995Y40211879D01*
X12783392Y40231609D01*
X12758851Y40253851D01*
X12736609Y40278392D01*
X12716879Y40304995D01*
X12699852Y40333404D01*
X12685691Y40363344D01*
X12674533Y40394529D01*
X12666485Y40426657D01*
X12661625Y40459419D01*
X12660000Y40492500D01*
X12660000Y41267500D01*
X12661625Y41300581D01*
X12666485Y41333343D01*
X12674533Y41365471D01*
X12685691Y41396656D01*
X12699852Y41426596D01*
X12716879Y41455005D01*
X12736609Y41481608D01*
X12758851Y41506149D01*
X12783392Y41528391D01*
X12809995Y41548121D01*
X12838404Y41565148D01*
X12868344Y41579309D01*
X12899529Y41590467D01*
X12931657Y41598515D01*
X12964419Y41603375D01*
X12997500Y41605000D01*
X13672500Y41605000D01*
X13705581Y41603375D01*
X13705581Y41603375D01*
G37*
D23*
X13335000Y40880000D03*
D10*
G36*
X13705581Y39853375D02*
G01*
X13738343Y39848515D01*
X13770471Y39840467D01*
X13801656Y39829309D01*
X13831596Y39815148D01*
X13860005Y39798121D01*
X13886608Y39778391D01*
X13911149Y39756149D01*
X13933391Y39731608D01*
X13953121Y39705005D01*
X13970148Y39676596D01*
X13984309Y39646656D01*
X13995467Y39615471D01*
X14003515Y39583343D01*
X14008375Y39550581D01*
X14010000Y39517500D01*
X14010000Y38742500D01*
X14008375Y38709419D01*
X14003515Y38676657D01*
X13995467Y38644529D01*
X13984309Y38613344D01*
X13970148Y38583404D01*
X13953121Y38554995D01*
X13933391Y38528392D01*
X13911149Y38503851D01*
X13886608Y38481609D01*
X13860005Y38461879D01*
X13831596Y38444852D01*
X13801656Y38430691D01*
X13770471Y38419533D01*
X13738343Y38411485D01*
X13705581Y38406625D01*
X13672500Y38405000D01*
X12997500Y38405000D01*
X12964419Y38406625D01*
X12931657Y38411485D01*
X12899529Y38419533D01*
X12868344Y38430691D01*
X12838404Y38444852D01*
X12809995Y38461879D01*
X12783392Y38481609D01*
X12758851Y38503851D01*
X12736609Y38528392D01*
X12716879Y38554995D01*
X12699852Y38583404D01*
X12685691Y38613344D01*
X12674533Y38644529D01*
X12666485Y38676657D01*
X12661625Y38709419D01*
X12660000Y38742500D01*
X12660000Y39517500D01*
X12661625Y39550581D01*
X12666485Y39583343D01*
X12674533Y39615471D01*
X12685691Y39646656D01*
X12699852Y39676596D01*
X12716879Y39705005D01*
X12736609Y39731608D01*
X12758851Y39756149D01*
X12783392Y39778391D01*
X12809995Y39798121D01*
X12838404Y39815148D01*
X12868344Y39829309D01*
X12899529Y39840467D01*
X12931657Y39848515D01*
X12964419Y39853375D01*
X12997500Y39855000D01*
X13672500Y39855000D01*
X13705581Y39853375D01*
X13705581Y39853375D01*
G37*
D23*
X13335000Y39130000D03*
D10*
G36*
X10530581Y41603375D02*
G01*
X10563343Y41598515D01*
X10595471Y41590467D01*
X10626656Y41579309D01*
X10656596Y41565148D01*
X10685005Y41548121D01*
X10711608Y41528391D01*
X10736149Y41506149D01*
X10758391Y41481608D01*
X10778121Y41455005D01*
X10795148Y41426596D01*
X10809309Y41396656D01*
X10820467Y41365471D01*
X10828515Y41333343D01*
X10833375Y41300581D01*
X10835000Y41267500D01*
X10835000Y40492500D01*
X10833375Y40459419D01*
X10828515Y40426657D01*
X10820467Y40394529D01*
X10809309Y40363344D01*
X10795148Y40333404D01*
X10778121Y40304995D01*
X10758391Y40278392D01*
X10736149Y40253851D01*
X10711608Y40231609D01*
X10685005Y40211879D01*
X10656596Y40194852D01*
X10626656Y40180691D01*
X10595471Y40169533D01*
X10563343Y40161485D01*
X10530581Y40156625D01*
X10497500Y40155000D01*
X9822500Y40155000D01*
X9789419Y40156625D01*
X9756657Y40161485D01*
X9724529Y40169533D01*
X9693344Y40180691D01*
X9663404Y40194852D01*
X9634995Y40211879D01*
X9608392Y40231609D01*
X9583851Y40253851D01*
X9561609Y40278392D01*
X9541879Y40304995D01*
X9524852Y40333404D01*
X9510691Y40363344D01*
X9499533Y40394529D01*
X9491485Y40426657D01*
X9486625Y40459419D01*
X9485000Y40492500D01*
X9485000Y41267500D01*
X9486625Y41300581D01*
X9491485Y41333343D01*
X9499533Y41365471D01*
X9510691Y41396656D01*
X9524852Y41426596D01*
X9541879Y41455005D01*
X9561609Y41481608D01*
X9583851Y41506149D01*
X9608392Y41528391D01*
X9634995Y41548121D01*
X9663404Y41565148D01*
X9693344Y41579309D01*
X9724529Y41590467D01*
X9756657Y41598515D01*
X9789419Y41603375D01*
X9822500Y41605000D01*
X10497500Y41605000D01*
X10530581Y41603375D01*
X10530581Y41603375D01*
G37*
D23*
X10160000Y40880000D03*
D10*
G36*
X10530581Y39853375D02*
G01*
X10563343Y39848515D01*
X10595471Y39840467D01*
X10626656Y39829309D01*
X10656596Y39815148D01*
X10685005Y39798121D01*
X10711608Y39778391D01*
X10736149Y39756149D01*
X10758391Y39731608D01*
X10778121Y39705005D01*
X10795148Y39676596D01*
X10809309Y39646656D01*
X10820467Y39615471D01*
X10828515Y39583343D01*
X10833375Y39550581D01*
X10835000Y39517500D01*
X10835000Y38742500D01*
X10833375Y38709419D01*
X10828515Y38676657D01*
X10820467Y38644529D01*
X10809309Y38613344D01*
X10795148Y38583404D01*
X10778121Y38554995D01*
X10758391Y38528392D01*
X10736149Y38503851D01*
X10711608Y38481609D01*
X10685005Y38461879D01*
X10656596Y38444852D01*
X10626656Y38430691D01*
X10595471Y38419533D01*
X10563343Y38411485D01*
X10530581Y38406625D01*
X10497500Y38405000D01*
X9822500Y38405000D01*
X9789419Y38406625D01*
X9756657Y38411485D01*
X9724529Y38419533D01*
X9693344Y38430691D01*
X9663404Y38444852D01*
X9634995Y38461879D01*
X9608392Y38481609D01*
X9583851Y38503851D01*
X9561609Y38528392D01*
X9541879Y38554995D01*
X9524852Y38583404D01*
X9510691Y38613344D01*
X9499533Y38644529D01*
X9491485Y38676657D01*
X9486625Y38709419D01*
X9485000Y38742500D01*
X9485000Y39517500D01*
X9486625Y39550581D01*
X9491485Y39583343D01*
X9499533Y39615471D01*
X9510691Y39646656D01*
X9524852Y39676596D01*
X9541879Y39705005D01*
X9561609Y39731608D01*
X9583851Y39756149D01*
X9608392Y39778391D01*
X9634995Y39798121D01*
X9663404Y39815148D01*
X9693344Y39829309D01*
X9724529Y39840467D01*
X9756657Y39848515D01*
X9789419Y39853375D01*
X9822500Y39855000D01*
X10497500Y39855000D01*
X10530581Y39853375D01*
X10530581Y39853375D01*
G37*
D23*
X10160000Y39130000D03*
D10*
G36*
X4815581Y73099375D02*
G01*
X4848343Y73094515D01*
X4880471Y73086467D01*
X4911656Y73075309D01*
X4941596Y73061148D01*
X4970005Y73044121D01*
X4996608Y73024391D01*
X5021149Y73002149D01*
X5043391Y72977608D01*
X5063121Y72951005D01*
X5080148Y72922596D01*
X5094309Y72892656D01*
X5105467Y72861471D01*
X5113515Y72829343D01*
X5118375Y72796581D01*
X5120000Y72763500D01*
X5120000Y71988500D01*
X5118375Y71955419D01*
X5113515Y71922657D01*
X5105467Y71890529D01*
X5094309Y71859344D01*
X5080148Y71829404D01*
X5063121Y71800995D01*
X5043391Y71774392D01*
X5021149Y71749851D01*
X4996608Y71727609D01*
X4970005Y71707879D01*
X4941596Y71690852D01*
X4911656Y71676691D01*
X4880471Y71665533D01*
X4848343Y71657485D01*
X4815581Y71652625D01*
X4782500Y71651000D01*
X4107500Y71651000D01*
X4074419Y71652625D01*
X4041657Y71657485D01*
X4009529Y71665533D01*
X3978344Y71676691D01*
X3948404Y71690852D01*
X3919995Y71707879D01*
X3893392Y71727609D01*
X3868851Y71749851D01*
X3846609Y71774392D01*
X3826879Y71800995D01*
X3809852Y71829404D01*
X3795691Y71859344D01*
X3784533Y71890529D01*
X3776485Y71922657D01*
X3771625Y71955419D01*
X3770000Y71988500D01*
X3770000Y72763500D01*
X3771625Y72796581D01*
X3776485Y72829343D01*
X3784533Y72861471D01*
X3795691Y72892656D01*
X3809852Y72922596D01*
X3826879Y72951005D01*
X3846609Y72977608D01*
X3868851Y73002149D01*
X3893392Y73024391D01*
X3919995Y73044121D01*
X3948404Y73061148D01*
X3978344Y73075309D01*
X4009529Y73086467D01*
X4041657Y73094515D01*
X4074419Y73099375D01*
X4107500Y73101000D01*
X4782500Y73101000D01*
X4815581Y73099375D01*
X4815581Y73099375D01*
G37*
D23*
X4445000Y72376000D03*
D10*
G36*
X4815581Y71349375D02*
G01*
X4848343Y71344515D01*
X4880471Y71336467D01*
X4911656Y71325309D01*
X4941596Y71311148D01*
X4970005Y71294121D01*
X4996608Y71274391D01*
X5021149Y71252149D01*
X5043391Y71227608D01*
X5063121Y71201005D01*
X5080148Y71172596D01*
X5094309Y71142656D01*
X5105467Y71111471D01*
X5113515Y71079343D01*
X5118375Y71046581D01*
X5120000Y71013500D01*
X5120000Y70238500D01*
X5118375Y70205419D01*
X5113515Y70172657D01*
X5105467Y70140529D01*
X5094309Y70109344D01*
X5080148Y70079404D01*
X5063121Y70050995D01*
X5043391Y70024392D01*
X5021149Y69999851D01*
X4996608Y69977609D01*
X4970005Y69957879D01*
X4941596Y69940852D01*
X4911656Y69926691D01*
X4880471Y69915533D01*
X4848343Y69907485D01*
X4815581Y69902625D01*
X4782500Y69901000D01*
X4107500Y69901000D01*
X4074419Y69902625D01*
X4041657Y69907485D01*
X4009529Y69915533D01*
X3978344Y69926691D01*
X3948404Y69940852D01*
X3919995Y69957879D01*
X3893392Y69977609D01*
X3868851Y69999851D01*
X3846609Y70024392D01*
X3826879Y70050995D01*
X3809852Y70079404D01*
X3795691Y70109344D01*
X3784533Y70140529D01*
X3776485Y70172657D01*
X3771625Y70205419D01*
X3770000Y70238500D01*
X3770000Y71013500D01*
X3771625Y71046581D01*
X3776485Y71079343D01*
X3784533Y71111471D01*
X3795691Y71142656D01*
X3809852Y71172596D01*
X3826879Y71201005D01*
X3846609Y71227608D01*
X3868851Y71252149D01*
X3893392Y71274391D01*
X3919995Y71294121D01*
X3948404Y71311148D01*
X3978344Y71325309D01*
X4009529Y71336467D01*
X4041657Y71344515D01*
X4074419Y71349375D01*
X4107500Y71351000D01*
X4782500Y71351000D01*
X4815581Y71349375D01*
X4815581Y71349375D01*
G37*
D23*
X4445000Y70626000D03*
D10*
G36*
X4815581Y65479375D02*
G01*
X4848343Y65474515D01*
X4880471Y65466467D01*
X4911656Y65455309D01*
X4941596Y65441148D01*
X4970005Y65424121D01*
X4996608Y65404391D01*
X5021149Y65382149D01*
X5043391Y65357608D01*
X5063121Y65331005D01*
X5080148Y65302596D01*
X5094309Y65272656D01*
X5105467Y65241471D01*
X5113515Y65209343D01*
X5118375Y65176581D01*
X5120000Y65143500D01*
X5120000Y64368500D01*
X5118375Y64335419D01*
X5113515Y64302657D01*
X5105467Y64270529D01*
X5094309Y64239344D01*
X5080148Y64209404D01*
X5063121Y64180995D01*
X5043391Y64154392D01*
X5021149Y64129851D01*
X4996608Y64107609D01*
X4970005Y64087879D01*
X4941596Y64070852D01*
X4911656Y64056691D01*
X4880471Y64045533D01*
X4848343Y64037485D01*
X4815581Y64032625D01*
X4782500Y64031000D01*
X4107500Y64031000D01*
X4074419Y64032625D01*
X4041657Y64037485D01*
X4009529Y64045533D01*
X3978344Y64056691D01*
X3948404Y64070852D01*
X3919995Y64087879D01*
X3893392Y64107609D01*
X3868851Y64129851D01*
X3846609Y64154392D01*
X3826879Y64180995D01*
X3809852Y64209404D01*
X3795691Y64239344D01*
X3784533Y64270529D01*
X3776485Y64302657D01*
X3771625Y64335419D01*
X3770000Y64368500D01*
X3770000Y65143500D01*
X3771625Y65176581D01*
X3776485Y65209343D01*
X3784533Y65241471D01*
X3795691Y65272656D01*
X3809852Y65302596D01*
X3826879Y65331005D01*
X3846609Y65357608D01*
X3868851Y65382149D01*
X3893392Y65404391D01*
X3919995Y65424121D01*
X3948404Y65441148D01*
X3978344Y65455309D01*
X4009529Y65466467D01*
X4041657Y65474515D01*
X4074419Y65479375D01*
X4107500Y65481000D01*
X4782500Y65481000D01*
X4815581Y65479375D01*
X4815581Y65479375D01*
G37*
D23*
X4445000Y64756000D03*
D10*
G36*
X4815581Y63729375D02*
G01*
X4848343Y63724515D01*
X4880471Y63716467D01*
X4911656Y63705309D01*
X4941596Y63691148D01*
X4970005Y63674121D01*
X4996608Y63654391D01*
X5021149Y63632149D01*
X5043391Y63607608D01*
X5063121Y63581005D01*
X5080148Y63552596D01*
X5094309Y63522656D01*
X5105467Y63491471D01*
X5113515Y63459343D01*
X5118375Y63426581D01*
X5120000Y63393500D01*
X5120000Y62618500D01*
X5118375Y62585419D01*
X5113515Y62552657D01*
X5105467Y62520529D01*
X5094309Y62489344D01*
X5080148Y62459404D01*
X5063121Y62430995D01*
X5043391Y62404392D01*
X5021149Y62379851D01*
X4996608Y62357609D01*
X4970005Y62337879D01*
X4941596Y62320852D01*
X4911656Y62306691D01*
X4880471Y62295533D01*
X4848343Y62287485D01*
X4815581Y62282625D01*
X4782500Y62281000D01*
X4107500Y62281000D01*
X4074419Y62282625D01*
X4041657Y62287485D01*
X4009529Y62295533D01*
X3978344Y62306691D01*
X3948404Y62320852D01*
X3919995Y62337879D01*
X3893392Y62357609D01*
X3868851Y62379851D01*
X3846609Y62404392D01*
X3826879Y62430995D01*
X3809852Y62459404D01*
X3795691Y62489344D01*
X3784533Y62520529D01*
X3776485Y62552657D01*
X3771625Y62585419D01*
X3770000Y62618500D01*
X3770000Y63393500D01*
X3771625Y63426581D01*
X3776485Y63459343D01*
X3784533Y63491471D01*
X3795691Y63522656D01*
X3809852Y63552596D01*
X3826879Y63581005D01*
X3846609Y63607608D01*
X3868851Y63632149D01*
X3893392Y63654391D01*
X3919995Y63674121D01*
X3948404Y63691148D01*
X3978344Y63705309D01*
X4009529Y63716467D01*
X4041657Y63724515D01*
X4074419Y63729375D01*
X4107500Y63731000D01*
X4782500Y63731000D01*
X4815581Y63729375D01*
X4815581Y63729375D01*
G37*
D23*
X4445000Y63006000D03*
D10*
G36*
X8117581Y73099375D02*
G01*
X8150343Y73094515D01*
X8182471Y73086467D01*
X8213656Y73075309D01*
X8243596Y73061148D01*
X8272005Y73044121D01*
X8298608Y73024391D01*
X8323149Y73002149D01*
X8345391Y72977608D01*
X8365121Y72951005D01*
X8382148Y72922596D01*
X8396309Y72892656D01*
X8407467Y72861471D01*
X8415515Y72829343D01*
X8420375Y72796581D01*
X8422000Y72763500D01*
X8422000Y71988500D01*
X8420375Y71955419D01*
X8415515Y71922657D01*
X8407467Y71890529D01*
X8396309Y71859344D01*
X8382148Y71829404D01*
X8365121Y71800995D01*
X8345391Y71774392D01*
X8323149Y71749851D01*
X8298608Y71727609D01*
X8272005Y71707879D01*
X8243596Y71690852D01*
X8213656Y71676691D01*
X8182471Y71665533D01*
X8150343Y71657485D01*
X8117581Y71652625D01*
X8084500Y71651000D01*
X7409500Y71651000D01*
X7376419Y71652625D01*
X7343657Y71657485D01*
X7311529Y71665533D01*
X7280344Y71676691D01*
X7250404Y71690852D01*
X7221995Y71707879D01*
X7195392Y71727609D01*
X7170851Y71749851D01*
X7148609Y71774392D01*
X7128879Y71800995D01*
X7111852Y71829404D01*
X7097691Y71859344D01*
X7086533Y71890529D01*
X7078485Y71922657D01*
X7073625Y71955419D01*
X7072000Y71988500D01*
X7072000Y72763500D01*
X7073625Y72796581D01*
X7078485Y72829343D01*
X7086533Y72861471D01*
X7097691Y72892656D01*
X7111852Y72922596D01*
X7128879Y72951005D01*
X7148609Y72977608D01*
X7170851Y73002149D01*
X7195392Y73024391D01*
X7221995Y73044121D01*
X7250404Y73061148D01*
X7280344Y73075309D01*
X7311529Y73086467D01*
X7343657Y73094515D01*
X7376419Y73099375D01*
X7409500Y73101000D01*
X8084500Y73101000D01*
X8117581Y73099375D01*
X8117581Y73099375D01*
G37*
D23*
X7747000Y72376000D03*
D10*
G36*
X8117581Y71349375D02*
G01*
X8150343Y71344515D01*
X8182471Y71336467D01*
X8213656Y71325309D01*
X8243596Y71311148D01*
X8272005Y71294121D01*
X8298608Y71274391D01*
X8323149Y71252149D01*
X8345391Y71227608D01*
X8365121Y71201005D01*
X8382148Y71172596D01*
X8396309Y71142656D01*
X8407467Y71111471D01*
X8415515Y71079343D01*
X8420375Y71046581D01*
X8422000Y71013500D01*
X8422000Y70238500D01*
X8420375Y70205419D01*
X8415515Y70172657D01*
X8407467Y70140529D01*
X8396309Y70109344D01*
X8382148Y70079404D01*
X8365121Y70050995D01*
X8345391Y70024392D01*
X8323149Y69999851D01*
X8298608Y69977609D01*
X8272005Y69957879D01*
X8243596Y69940852D01*
X8213656Y69926691D01*
X8182471Y69915533D01*
X8150343Y69907485D01*
X8117581Y69902625D01*
X8084500Y69901000D01*
X7409500Y69901000D01*
X7376419Y69902625D01*
X7343657Y69907485D01*
X7311529Y69915533D01*
X7280344Y69926691D01*
X7250404Y69940852D01*
X7221995Y69957879D01*
X7195392Y69977609D01*
X7170851Y69999851D01*
X7148609Y70024392D01*
X7128879Y70050995D01*
X7111852Y70079404D01*
X7097691Y70109344D01*
X7086533Y70140529D01*
X7078485Y70172657D01*
X7073625Y70205419D01*
X7072000Y70238500D01*
X7072000Y71013500D01*
X7073625Y71046581D01*
X7078485Y71079343D01*
X7086533Y71111471D01*
X7097691Y71142656D01*
X7111852Y71172596D01*
X7128879Y71201005D01*
X7148609Y71227608D01*
X7170851Y71252149D01*
X7195392Y71274391D01*
X7221995Y71294121D01*
X7250404Y71311148D01*
X7280344Y71325309D01*
X7311529Y71336467D01*
X7343657Y71344515D01*
X7376419Y71349375D01*
X7409500Y71351000D01*
X8084500Y71351000D01*
X8117581Y71349375D01*
X8117581Y71349375D01*
G37*
D23*
X7747000Y70626000D03*
D10*
G36*
X8117581Y65479375D02*
G01*
X8150343Y65474515D01*
X8182471Y65466467D01*
X8213656Y65455309D01*
X8243596Y65441148D01*
X8272005Y65424121D01*
X8298608Y65404391D01*
X8323149Y65382149D01*
X8345391Y65357608D01*
X8365121Y65331005D01*
X8382148Y65302596D01*
X8396309Y65272656D01*
X8407467Y65241471D01*
X8415515Y65209343D01*
X8420375Y65176581D01*
X8422000Y65143500D01*
X8422000Y64368500D01*
X8420375Y64335419D01*
X8415515Y64302657D01*
X8407467Y64270529D01*
X8396309Y64239344D01*
X8382148Y64209404D01*
X8365121Y64180995D01*
X8345391Y64154392D01*
X8323149Y64129851D01*
X8298608Y64107609D01*
X8272005Y64087879D01*
X8243596Y64070852D01*
X8213656Y64056691D01*
X8182471Y64045533D01*
X8150343Y64037485D01*
X8117581Y64032625D01*
X8084500Y64031000D01*
X7409500Y64031000D01*
X7376419Y64032625D01*
X7343657Y64037485D01*
X7311529Y64045533D01*
X7280344Y64056691D01*
X7250404Y64070852D01*
X7221995Y64087879D01*
X7195392Y64107609D01*
X7170851Y64129851D01*
X7148609Y64154392D01*
X7128879Y64180995D01*
X7111852Y64209404D01*
X7097691Y64239344D01*
X7086533Y64270529D01*
X7078485Y64302657D01*
X7073625Y64335419D01*
X7072000Y64368500D01*
X7072000Y65143500D01*
X7073625Y65176581D01*
X7078485Y65209343D01*
X7086533Y65241471D01*
X7097691Y65272656D01*
X7111852Y65302596D01*
X7128879Y65331005D01*
X7148609Y65357608D01*
X7170851Y65382149D01*
X7195392Y65404391D01*
X7221995Y65424121D01*
X7250404Y65441148D01*
X7280344Y65455309D01*
X7311529Y65466467D01*
X7343657Y65474515D01*
X7376419Y65479375D01*
X7409500Y65481000D01*
X8084500Y65481000D01*
X8117581Y65479375D01*
X8117581Y65479375D01*
G37*
D23*
X7747000Y64756000D03*
D10*
G36*
X8117581Y63729375D02*
G01*
X8150343Y63724515D01*
X8182471Y63716467D01*
X8213656Y63705309D01*
X8243596Y63691148D01*
X8272005Y63674121D01*
X8298608Y63654391D01*
X8323149Y63632149D01*
X8345391Y63607608D01*
X8365121Y63581005D01*
X8382148Y63552596D01*
X8396309Y63522656D01*
X8407467Y63491471D01*
X8415515Y63459343D01*
X8420375Y63426581D01*
X8422000Y63393500D01*
X8422000Y62618500D01*
X8420375Y62585419D01*
X8415515Y62552657D01*
X8407467Y62520529D01*
X8396309Y62489344D01*
X8382148Y62459404D01*
X8365121Y62430995D01*
X8345391Y62404392D01*
X8323149Y62379851D01*
X8298608Y62357609D01*
X8272005Y62337879D01*
X8243596Y62320852D01*
X8213656Y62306691D01*
X8182471Y62295533D01*
X8150343Y62287485D01*
X8117581Y62282625D01*
X8084500Y62281000D01*
X7409500Y62281000D01*
X7376419Y62282625D01*
X7343657Y62287485D01*
X7311529Y62295533D01*
X7280344Y62306691D01*
X7250404Y62320852D01*
X7221995Y62337879D01*
X7195392Y62357609D01*
X7170851Y62379851D01*
X7148609Y62404392D01*
X7128879Y62430995D01*
X7111852Y62459404D01*
X7097691Y62489344D01*
X7086533Y62520529D01*
X7078485Y62552657D01*
X7073625Y62585419D01*
X7072000Y62618500D01*
X7072000Y63393500D01*
X7073625Y63426581D01*
X7078485Y63459343D01*
X7086533Y63491471D01*
X7097691Y63522656D01*
X7111852Y63552596D01*
X7128879Y63581005D01*
X7148609Y63607608D01*
X7170851Y63632149D01*
X7195392Y63654391D01*
X7221995Y63674121D01*
X7250404Y63691148D01*
X7280344Y63705309D01*
X7311529Y63716467D01*
X7343657Y63724515D01*
X7376419Y63729375D01*
X7409500Y63731000D01*
X8084500Y63731000D01*
X8117581Y63729375D01*
X8117581Y63729375D01*
G37*
D23*
X7747000Y63006000D03*
D10*
G36*
X11292581Y73099375D02*
G01*
X11325343Y73094515D01*
X11357471Y73086467D01*
X11388656Y73075309D01*
X11418596Y73061148D01*
X11447005Y73044121D01*
X11473608Y73024391D01*
X11498149Y73002149D01*
X11520391Y72977608D01*
X11540121Y72951005D01*
X11557148Y72922596D01*
X11571309Y72892656D01*
X11582467Y72861471D01*
X11590515Y72829343D01*
X11595375Y72796581D01*
X11597000Y72763500D01*
X11597000Y71988500D01*
X11595375Y71955419D01*
X11590515Y71922657D01*
X11582467Y71890529D01*
X11571309Y71859344D01*
X11557148Y71829404D01*
X11540121Y71800995D01*
X11520391Y71774392D01*
X11498149Y71749851D01*
X11473608Y71727609D01*
X11447005Y71707879D01*
X11418596Y71690852D01*
X11388656Y71676691D01*
X11357471Y71665533D01*
X11325343Y71657485D01*
X11292581Y71652625D01*
X11259500Y71651000D01*
X10584500Y71651000D01*
X10551419Y71652625D01*
X10518657Y71657485D01*
X10486529Y71665533D01*
X10455344Y71676691D01*
X10425404Y71690852D01*
X10396995Y71707879D01*
X10370392Y71727609D01*
X10345851Y71749851D01*
X10323609Y71774392D01*
X10303879Y71800995D01*
X10286852Y71829404D01*
X10272691Y71859344D01*
X10261533Y71890529D01*
X10253485Y71922657D01*
X10248625Y71955419D01*
X10247000Y71988500D01*
X10247000Y72763500D01*
X10248625Y72796581D01*
X10253485Y72829343D01*
X10261533Y72861471D01*
X10272691Y72892656D01*
X10286852Y72922596D01*
X10303879Y72951005D01*
X10323609Y72977608D01*
X10345851Y73002149D01*
X10370392Y73024391D01*
X10396995Y73044121D01*
X10425404Y73061148D01*
X10455344Y73075309D01*
X10486529Y73086467D01*
X10518657Y73094515D01*
X10551419Y73099375D01*
X10584500Y73101000D01*
X11259500Y73101000D01*
X11292581Y73099375D01*
X11292581Y73099375D01*
G37*
D23*
X10922000Y72376000D03*
D10*
G36*
X11292581Y71349375D02*
G01*
X11325343Y71344515D01*
X11357471Y71336467D01*
X11388656Y71325309D01*
X11418596Y71311148D01*
X11447005Y71294121D01*
X11473608Y71274391D01*
X11498149Y71252149D01*
X11520391Y71227608D01*
X11540121Y71201005D01*
X11557148Y71172596D01*
X11571309Y71142656D01*
X11582467Y71111471D01*
X11590515Y71079343D01*
X11595375Y71046581D01*
X11597000Y71013500D01*
X11597000Y70238500D01*
X11595375Y70205419D01*
X11590515Y70172657D01*
X11582467Y70140529D01*
X11571309Y70109344D01*
X11557148Y70079404D01*
X11540121Y70050995D01*
X11520391Y70024392D01*
X11498149Y69999851D01*
X11473608Y69977609D01*
X11447005Y69957879D01*
X11418596Y69940852D01*
X11388656Y69926691D01*
X11357471Y69915533D01*
X11325343Y69907485D01*
X11292581Y69902625D01*
X11259500Y69901000D01*
X10584500Y69901000D01*
X10551419Y69902625D01*
X10518657Y69907485D01*
X10486529Y69915533D01*
X10455344Y69926691D01*
X10425404Y69940852D01*
X10396995Y69957879D01*
X10370392Y69977609D01*
X10345851Y69999851D01*
X10323609Y70024392D01*
X10303879Y70050995D01*
X10286852Y70079404D01*
X10272691Y70109344D01*
X10261533Y70140529D01*
X10253485Y70172657D01*
X10248625Y70205419D01*
X10247000Y70238500D01*
X10247000Y71013500D01*
X10248625Y71046581D01*
X10253485Y71079343D01*
X10261533Y71111471D01*
X10272691Y71142656D01*
X10286852Y71172596D01*
X10303879Y71201005D01*
X10323609Y71227608D01*
X10345851Y71252149D01*
X10370392Y71274391D01*
X10396995Y71294121D01*
X10425404Y71311148D01*
X10455344Y71325309D01*
X10486529Y71336467D01*
X10518657Y71344515D01*
X10551419Y71349375D01*
X10584500Y71351000D01*
X11259500Y71351000D01*
X11292581Y71349375D01*
X11292581Y71349375D01*
G37*
D23*
X10922000Y70626000D03*
D10*
G36*
X11292581Y65479375D02*
G01*
X11325343Y65474515D01*
X11357471Y65466467D01*
X11388656Y65455309D01*
X11418596Y65441148D01*
X11447005Y65424121D01*
X11473608Y65404391D01*
X11498149Y65382149D01*
X11520391Y65357608D01*
X11540121Y65331005D01*
X11557148Y65302596D01*
X11571309Y65272656D01*
X11582467Y65241471D01*
X11590515Y65209343D01*
X11595375Y65176581D01*
X11597000Y65143500D01*
X11597000Y64368500D01*
X11595375Y64335419D01*
X11590515Y64302657D01*
X11582467Y64270529D01*
X11571309Y64239344D01*
X11557148Y64209404D01*
X11540121Y64180995D01*
X11520391Y64154392D01*
X11498149Y64129851D01*
X11473608Y64107609D01*
X11447005Y64087879D01*
X11418596Y64070852D01*
X11388656Y64056691D01*
X11357471Y64045533D01*
X11325343Y64037485D01*
X11292581Y64032625D01*
X11259500Y64031000D01*
X10584500Y64031000D01*
X10551419Y64032625D01*
X10518657Y64037485D01*
X10486529Y64045533D01*
X10455344Y64056691D01*
X10425404Y64070852D01*
X10396995Y64087879D01*
X10370392Y64107609D01*
X10345851Y64129851D01*
X10323609Y64154392D01*
X10303879Y64180995D01*
X10286852Y64209404D01*
X10272691Y64239344D01*
X10261533Y64270529D01*
X10253485Y64302657D01*
X10248625Y64335419D01*
X10247000Y64368500D01*
X10247000Y65143500D01*
X10248625Y65176581D01*
X10253485Y65209343D01*
X10261533Y65241471D01*
X10272691Y65272656D01*
X10286852Y65302596D01*
X10303879Y65331005D01*
X10323609Y65357608D01*
X10345851Y65382149D01*
X10370392Y65404391D01*
X10396995Y65424121D01*
X10425404Y65441148D01*
X10455344Y65455309D01*
X10486529Y65466467D01*
X10518657Y65474515D01*
X10551419Y65479375D01*
X10584500Y65481000D01*
X11259500Y65481000D01*
X11292581Y65479375D01*
X11292581Y65479375D01*
G37*
D23*
X10922000Y64756000D03*
D10*
G36*
X11292581Y63729375D02*
G01*
X11325343Y63724515D01*
X11357471Y63716467D01*
X11388656Y63705309D01*
X11418596Y63691148D01*
X11447005Y63674121D01*
X11473608Y63654391D01*
X11498149Y63632149D01*
X11520391Y63607608D01*
X11540121Y63581005D01*
X11557148Y63552596D01*
X11571309Y63522656D01*
X11582467Y63491471D01*
X11590515Y63459343D01*
X11595375Y63426581D01*
X11597000Y63393500D01*
X11597000Y62618500D01*
X11595375Y62585419D01*
X11590515Y62552657D01*
X11582467Y62520529D01*
X11571309Y62489344D01*
X11557148Y62459404D01*
X11540121Y62430995D01*
X11520391Y62404392D01*
X11498149Y62379851D01*
X11473608Y62357609D01*
X11447005Y62337879D01*
X11418596Y62320852D01*
X11388656Y62306691D01*
X11357471Y62295533D01*
X11325343Y62287485D01*
X11292581Y62282625D01*
X11259500Y62281000D01*
X10584500Y62281000D01*
X10551419Y62282625D01*
X10518657Y62287485D01*
X10486529Y62295533D01*
X10455344Y62306691D01*
X10425404Y62320852D01*
X10396995Y62337879D01*
X10370392Y62357609D01*
X10345851Y62379851D01*
X10323609Y62404392D01*
X10303879Y62430995D01*
X10286852Y62459404D01*
X10272691Y62489344D01*
X10261533Y62520529D01*
X10253485Y62552657D01*
X10248625Y62585419D01*
X10247000Y62618500D01*
X10247000Y63393500D01*
X10248625Y63426581D01*
X10253485Y63459343D01*
X10261533Y63491471D01*
X10272691Y63522656D01*
X10286852Y63552596D01*
X10303879Y63581005D01*
X10323609Y63607608D01*
X10345851Y63632149D01*
X10370392Y63654391D01*
X10396995Y63674121D01*
X10425404Y63691148D01*
X10455344Y63705309D01*
X10486529Y63716467D01*
X10518657Y63724515D01*
X10551419Y63729375D01*
X10584500Y63731000D01*
X11259500Y63731000D01*
X11292581Y63729375D01*
X11292581Y63729375D01*
G37*
D23*
X10922000Y63006000D03*
D10*
G36*
X25580581Y88303375D02*
G01*
X25613343Y88298515D01*
X25645471Y88290467D01*
X25676656Y88279309D01*
X25706596Y88265148D01*
X25735005Y88248121D01*
X25761608Y88228391D01*
X25786149Y88206149D01*
X25808391Y88181608D01*
X25828121Y88155005D01*
X25845148Y88126596D01*
X25859309Y88096656D01*
X25870467Y88065471D01*
X25878515Y88033343D01*
X25883375Y88000581D01*
X25885000Y87967500D01*
X25885000Y87292500D01*
X25883375Y87259419D01*
X25878515Y87226657D01*
X25870467Y87194529D01*
X25859309Y87163344D01*
X25845148Y87133404D01*
X25828121Y87104995D01*
X25808391Y87078392D01*
X25786149Y87053851D01*
X25761608Y87031609D01*
X25735005Y87011879D01*
X25706596Y86994852D01*
X25676656Y86980691D01*
X25645471Y86969533D01*
X25613343Y86961485D01*
X25580581Y86956625D01*
X25547500Y86955000D01*
X24772500Y86955000D01*
X24739419Y86956625D01*
X24706657Y86961485D01*
X24674529Y86969533D01*
X24643344Y86980691D01*
X24613404Y86994852D01*
X24584995Y87011879D01*
X24558392Y87031609D01*
X24533851Y87053851D01*
X24511609Y87078392D01*
X24491879Y87104995D01*
X24474852Y87133404D01*
X24460691Y87163344D01*
X24449533Y87194529D01*
X24441485Y87226657D01*
X24436625Y87259419D01*
X24435000Y87292500D01*
X24435000Y87967500D01*
X24436625Y88000581D01*
X24441485Y88033343D01*
X24449533Y88065471D01*
X24460691Y88096656D01*
X24474852Y88126596D01*
X24491879Y88155005D01*
X24511609Y88181608D01*
X24533851Y88206149D01*
X24558392Y88228391D01*
X24584995Y88248121D01*
X24613404Y88265148D01*
X24643344Y88279309D01*
X24674529Y88290467D01*
X24706657Y88298515D01*
X24739419Y88303375D01*
X24772500Y88305000D01*
X25547500Y88305000D01*
X25580581Y88303375D01*
X25580581Y88303375D01*
G37*
D23*
X25160000Y87630000D03*
D10*
G36*
X27330581Y88303375D02*
G01*
X27363343Y88298515D01*
X27395471Y88290467D01*
X27426656Y88279309D01*
X27456596Y88265148D01*
X27485005Y88248121D01*
X27511608Y88228391D01*
X27536149Y88206149D01*
X27558391Y88181608D01*
X27578121Y88155005D01*
X27595148Y88126596D01*
X27609309Y88096656D01*
X27620467Y88065471D01*
X27628515Y88033343D01*
X27633375Y88000581D01*
X27635000Y87967500D01*
X27635000Y87292500D01*
X27633375Y87259419D01*
X27628515Y87226657D01*
X27620467Y87194529D01*
X27609309Y87163344D01*
X27595148Y87133404D01*
X27578121Y87104995D01*
X27558391Y87078392D01*
X27536149Y87053851D01*
X27511608Y87031609D01*
X27485005Y87011879D01*
X27456596Y86994852D01*
X27426656Y86980691D01*
X27395471Y86969533D01*
X27363343Y86961485D01*
X27330581Y86956625D01*
X27297500Y86955000D01*
X26522500Y86955000D01*
X26489419Y86956625D01*
X26456657Y86961485D01*
X26424529Y86969533D01*
X26393344Y86980691D01*
X26363404Y86994852D01*
X26334995Y87011879D01*
X26308392Y87031609D01*
X26283851Y87053851D01*
X26261609Y87078392D01*
X26241879Y87104995D01*
X26224852Y87133404D01*
X26210691Y87163344D01*
X26199533Y87194529D01*
X26191485Y87226657D01*
X26186625Y87259419D01*
X26185000Y87292500D01*
X26185000Y87967500D01*
X26186625Y88000581D01*
X26191485Y88033343D01*
X26199533Y88065471D01*
X26210691Y88096656D01*
X26224852Y88126596D01*
X26241879Y88155005D01*
X26261609Y88181608D01*
X26283851Y88206149D01*
X26308392Y88228391D01*
X26334995Y88248121D01*
X26363404Y88265148D01*
X26393344Y88279309D01*
X26424529Y88290467D01*
X26456657Y88298515D01*
X26489419Y88303375D01*
X26522500Y88305000D01*
X27297500Y88305000D01*
X27330581Y88303375D01*
X27330581Y88303375D01*
G37*
D23*
X26910000Y87630000D03*
D13*
X63500000Y44450000D03*
D20*
X66040000Y44450000D03*
D24*
X40640000Y19880000D03*
D25*
X42920000Y13580000D03*
X40640000Y13580000D03*
X38360000Y13580000D03*
D24*
X40640000Y32580000D03*
D25*
X42920000Y26280000D03*
X40640000Y26280000D03*
X38360000Y26280000D03*
D24*
X31750000Y19880000D03*
D25*
X34030000Y13580000D03*
X31750000Y13580000D03*
X29470000Y13580000D03*
D24*
X31750000Y32580000D03*
D25*
X34030000Y26280000D03*
X31750000Y26280000D03*
X29470000Y26280000D03*
D24*
X22860000Y19880000D03*
D25*
X25140000Y13580000D03*
X22860000Y13580000D03*
X20580000Y13580000D03*
D24*
X22860000Y32580000D03*
D25*
X25140000Y26280000D03*
X22860000Y26280000D03*
X20580000Y26280000D03*
D26*
X40640000Y5715000D03*
X31750000Y5715000D03*
X22860000Y5715000D03*
D27*
X65532000Y22860000D03*
X65405000Y36830000D03*
D28*
X45720000Y44526200D03*
X44450000Y44526200D03*
X43180000Y44526200D03*
X41910000Y44526200D03*
X41910000Y49453800D03*
X43180000Y49453800D03*
X44450000Y49453800D03*
X45720000Y49453800D03*
X29845000Y44526200D03*
X28575000Y44526200D03*
X27305000Y44526200D03*
X26035000Y44526200D03*
X26035000Y49453800D03*
X27305000Y49453800D03*
X28575000Y49453800D03*
X29845000Y49453800D03*
X13970000Y44526200D03*
X12700000Y44526200D03*
X11430000Y44526200D03*
X10160000Y44526200D03*
X10160000Y49453800D03*
X11430000Y49453800D03*
X12700000Y49453800D03*
X13970000Y49453800D03*
D10*
G36*
X5450581Y51368375D02*
G01*
X5483343Y51363515D01*
X5515471Y51355467D01*
X5546656Y51344309D01*
X5576596Y51330148D01*
X5605005Y51313121D01*
X5631608Y51293391D01*
X5656149Y51271149D01*
X5678391Y51246608D01*
X5698121Y51220005D01*
X5715148Y51191596D01*
X5729309Y51161656D01*
X5740467Y51130471D01*
X5748515Y51098343D01*
X5753375Y51065581D01*
X5755000Y51032500D01*
X5755000Y50257500D01*
X5753375Y50224419D01*
X5748515Y50191657D01*
X5740467Y50159529D01*
X5729309Y50128344D01*
X5715148Y50098404D01*
X5698121Y50069995D01*
X5678391Y50043392D01*
X5656149Y50018851D01*
X5631608Y49996609D01*
X5605005Y49976879D01*
X5576596Y49959852D01*
X5546656Y49945691D01*
X5515471Y49934533D01*
X5483343Y49926485D01*
X5450581Y49921625D01*
X5417500Y49920000D01*
X4742500Y49920000D01*
X4709419Y49921625D01*
X4676657Y49926485D01*
X4644529Y49934533D01*
X4613344Y49945691D01*
X4583404Y49959852D01*
X4554995Y49976879D01*
X4528392Y49996609D01*
X4503851Y50018851D01*
X4481609Y50043392D01*
X4461879Y50069995D01*
X4444852Y50098404D01*
X4430691Y50128344D01*
X4419533Y50159529D01*
X4411485Y50191657D01*
X4406625Y50224419D01*
X4405000Y50257500D01*
X4405000Y51032500D01*
X4406625Y51065581D01*
X4411485Y51098343D01*
X4419533Y51130471D01*
X4430691Y51161656D01*
X4444852Y51191596D01*
X4461879Y51220005D01*
X4481609Y51246608D01*
X4503851Y51271149D01*
X4528392Y51293391D01*
X4554995Y51313121D01*
X4583404Y51330148D01*
X4613344Y51344309D01*
X4644529Y51355467D01*
X4676657Y51363515D01*
X4709419Y51368375D01*
X4742500Y51370000D01*
X5417500Y51370000D01*
X5450581Y51368375D01*
X5450581Y51368375D01*
G37*
D23*
X5080000Y50645000D03*
D10*
G36*
X5450581Y49618375D02*
G01*
X5483343Y49613515D01*
X5515471Y49605467D01*
X5546656Y49594309D01*
X5576596Y49580148D01*
X5605005Y49563121D01*
X5631608Y49543391D01*
X5656149Y49521149D01*
X5678391Y49496608D01*
X5698121Y49470005D01*
X5715148Y49441596D01*
X5729309Y49411656D01*
X5740467Y49380471D01*
X5748515Y49348343D01*
X5753375Y49315581D01*
X5755000Y49282500D01*
X5755000Y48507500D01*
X5753375Y48474419D01*
X5748515Y48441657D01*
X5740467Y48409529D01*
X5729309Y48378344D01*
X5715148Y48348404D01*
X5698121Y48319995D01*
X5678391Y48293392D01*
X5656149Y48268851D01*
X5631608Y48246609D01*
X5605005Y48226879D01*
X5576596Y48209852D01*
X5546656Y48195691D01*
X5515471Y48184533D01*
X5483343Y48176485D01*
X5450581Y48171625D01*
X5417500Y48170000D01*
X4742500Y48170000D01*
X4709419Y48171625D01*
X4676657Y48176485D01*
X4644529Y48184533D01*
X4613344Y48195691D01*
X4583404Y48209852D01*
X4554995Y48226879D01*
X4528392Y48246609D01*
X4503851Y48268851D01*
X4481609Y48293392D01*
X4461879Y48319995D01*
X4444852Y48348404D01*
X4430691Y48378344D01*
X4419533Y48409529D01*
X4411485Y48441657D01*
X4406625Y48474419D01*
X4405000Y48507500D01*
X4405000Y49282500D01*
X4406625Y49315581D01*
X4411485Y49348343D01*
X4419533Y49380471D01*
X4430691Y49411656D01*
X4444852Y49441596D01*
X4461879Y49470005D01*
X4481609Y49496608D01*
X4503851Y49521149D01*
X4528392Y49543391D01*
X4554995Y49563121D01*
X4583404Y49580148D01*
X4613344Y49594309D01*
X4644529Y49605467D01*
X4676657Y49613515D01*
X4709419Y49618375D01*
X4742500Y49620000D01*
X5417500Y49620000D01*
X5450581Y49618375D01*
X5450581Y49618375D01*
G37*
D23*
X5080000Y48895000D03*
D10*
G36*
X49900581Y56998375D02*
G01*
X49933343Y56993515D01*
X49965471Y56985467D01*
X49996656Y56974309D01*
X50026596Y56960148D01*
X50055005Y56943121D01*
X50081608Y56923391D01*
X50106149Y56901149D01*
X50128391Y56876608D01*
X50148121Y56850005D01*
X50165148Y56821596D01*
X50179309Y56791656D01*
X50190467Y56760471D01*
X50198515Y56728343D01*
X50203375Y56695581D01*
X50205000Y56662500D01*
X50205000Y55887500D01*
X50203375Y55854419D01*
X50198515Y55821657D01*
X50190467Y55789529D01*
X50179309Y55758344D01*
X50165148Y55728404D01*
X50148121Y55699995D01*
X50128391Y55673392D01*
X50106149Y55648851D01*
X50081608Y55626609D01*
X50055005Y55606879D01*
X50026596Y55589852D01*
X49996656Y55575691D01*
X49965471Y55564533D01*
X49933343Y55556485D01*
X49900581Y55551625D01*
X49867500Y55550000D01*
X49192500Y55550000D01*
X49159419Y55551625D01*
X49126657Y55556485D01*
X49094529Y55564533D01*
X49063344Y55575691D01*
X49033404Y55589852D01*
X49004995Y55606879D01*
X48978392Y55626609D01*
X48953851Y55648851D01*
X48931609Y55673392D01*
X48911879Y55699995D01*
X48894852Y55728404D01*
X48880691Y55758344D01*
X48869533Y55789529D01*
X48861485Y55821657D01*
X48856625Y55854419D01*
X48855000Y55887500D01*
X48855000Y56662500D01*
X48856625Y56695581D01*
X48861485Y56728343D01*
X48869533Y56760471D01*
X48880691Y56791656D01*
X48894852Y56821596D01*
X48911879Y56850005D01*
X48931609Y56876608D01*
X48953851Y56901149D01*
X48978392Y56923391D01*
X49004995Y56943121D01*
X49033404Y56960148D01*
X49063344Y56974309D01*
X49094529Y56985467D01*
X49126657Y56993515D01*
X49159419Y56998375D01*
X49192500Y57000000D01*
X49867500Y57000000D01*
X49900581Y56998375D01*
X49900581Y56998375D01*
G37*
D23*
X49530000Y56275000D03*
D10*
G36*
X49900581Y58748375D02*
G01*
X49933343Y58743515D01*
X49965471Y58735467D01*
X49996656Y58724309D01*
X50026596Y58710148D01*
X50055005Y58693121D01*
X50081608Y58673391D01*
X50106149Y58651149D01*
X50128391Y58626608D01*
X50148121Y58600005D01*
X50165148Y58571596D01*
X50179309Y58541656D01*
X50190467Y58510471D01*
X50198515Y58478343D01*
X50203375Y58445581D01*
X50205000Y58412500D01*
X50205000Y57637500D01*
X50203375Y57604419D01*
X50198515Y57571657D01*
X50190467Y57539529D01*
X50179309Y57508344D01*
X50165148Y57478404D01*
X50148121Y57449995D01*
X50128391Y57423392D01*
X50106149Y57398851D01*
X50081608Y57376609D01*
X50055005Y57356879D01*
X50026596Y57339852D01*
X49996656Y57325691D01*
X49965471Y57314533D01*
X49933343Y57306485D01*
X49900581Y57301625D01*
X49867500Y57300000D01*
X49192500Y57300000D01*
X49159419Y57301625D01*
X49126657Y57306485D01*
X49094529Y57314533D01*
X49063344Y57325691D01*
X49033404Y57339852D01*
X49004995Y57356879D01*
X48978392Y57376609D01*
X48953851Y57398851D01*
X48931609Y57423392D01*
X48911879Y57449995D01*
X48894852Y57478404D01*
X48880691Y57508344D01*
X48869533Y57539529D01*
X48861485Y57571657D01*
X48856625Y57604419D01*
X48855000Y57637500D01*
X48855000Y58412500D01*
X48856625Y58445581D01*
X48861485Y58478343D01*
X48869533Y58510471D01*
X48880691Y58541656D01*
X48894852Y58571596D01*
X48911879Y58600005D01*
X48931609Y58626608D01*
X48953851Y58651149D01*
X48978392Y58673391D01*
X49004995Y58693121D01*
X49033404Y58710148D01*
X49063344Y58724309D01*
X49094529Y58735467D01*
X49126657Y58743515D01*
X49159419Y58748375D01*
X49192500Y58750000D01*
X49867500Y58750000D01*
X49900581Y58748375D01*
X49900581Y58748375D01*
G37*
D23*
X49530000Y58025000D03*
D10*
G36*
X34025581Y56998375D02*
G01*
X34058343Y56993515D01*
X34090471Y56985467D01*
X34121656Y56974309D01*
X34151596Y56960148D01*
X34180005Y56943121D01*
X34206608Y56923391D01*
X34231149Y56901149D01*
X34253391Y56876608D01*
X34273121Y56850005D01*
X34290148Y56821596D01*
X34304309Y56791656D01*
X34315467Y56760471D01*
X34323515Y56728343D01*
X34328375Y56695581D01*
X34330000Y56662500D01*
X34330000Y55887500D01*
X34328375Y55854419D01*
X34323515Y55821657D01*
X34315467Y55789529D01*
X34304309Y55758344D01*
X34290148Y55728404D01*
X34273121Y55699995D01*
X34253391Y55673392D01*
X34231149Y55648851D01*
X34206608Y55626609D01*
X34180005Y55606879D01*
X34151596Y55589852D01*
X34121656Y55575691D01*
X34090471Y55564533D01*
X34058343Y55556485D01*
X34025581Y55551625D01*
X33992500Y55550000D01*
X33317500Y55550000D01*
X33284419Y55551625D01*
X33251657Y55556485D01*
X33219529Y55564533D01*
X33188344Y55575691D01*
X33158404Y55589852D01*
X33129995Y55606879D01*
X33103392Y55626609D01*
X33078851Y55648851D01*
X33056609Y55673392D01*
X33036879Y55699995D01*
X33019852Y55728404D01*
X33005691Y55758344D01*
X32994533Y55789529D01*
X32986485Y55821657D01*
X32981625Y55854419D01*
X32980000Y55887500D01*
X32980000Y56662500D01*
X32981625Y56695581D01*
X32986485Y56728343D01*
X32994533Y56760471D01*
X33005691Y56791656D01*
X33019852Y56821596D01*
X33036879Y56850005D01*
X33056609Y56876608D01*
X33078851Y56901149D01*
X33103392Y56923391D01*
X33129995Y56943121D01*
X33158404Y56960148D01*
X33188344Y56974309D01*
X33219529Y56985467D01*
X33251657Y56993515D01*
X33284419Y56998375D01*
X33317500Y57000000D01*
X33992500Y57000000D01*
X34025581Y56998375D01*
X34025581Y56998375D01*
G37*
D23*
X33655000Y56275000D03*
D10*
G36*
X34025581Y58748375D02*
G01*
X34058343Y58743515D01*
X34090471Y58735467D01*
X34121656Y58724309D01*
X34151596Y58710148D01*
X34180005Y58693121D01*
X34206608Y58673391D01*
X34231149Y58651149D01*
X34253391Y58626608D01*
X34273121Y58600005D01*
X34290148Y58571596D01*
X34304309Y58541656D01*
X34315467Y58510471D01*
X34323515Y58478343D01*
X34328375Y58445581D01*
X34330000Y58412500D01*
X34330000Y57637500D01*
X34328375Y57604419D01*
X34323515Y57571657D01*
X34315467Y57539529D01*
X34304309Y57508344D01*
X34290148Y57478404D01*
X34273121Y57449995D01*
X34253391Y57423392D01*
X34231149Y57398851D01*
X34206608Y57376609D01*
X34180005Y57356879D01*
X34151596Y57339852D01*
X34121656Y57325691D01*
X34090471Y57314533D01*
X34058343Y57306485D01*
X34025581Y57301625D01*
X33992500Y57300000D01*
X33317500Y57300000D01*
X33284419Y57301625D01*
X33251657Y57306485D01*
X33219529Y57314533D01*
X33188344Y57325691D01*
X33158404Y57339852D01*
X33129995Y57356879D01*
X33103392Y57376609D01*
X33078851Y57398851D01*
X33056609Y57423392D01*
X33036879Y57449995D01*
X33019852Y57478404D01*
X33005691Y57508344D01*
X32994533Y57539529D01*
X32986485Y57571657D01*
X32981625Y57604419D01*
X32980000Y57637500D01*
X32980000Y58412500D01*
X32981625Y58445581D01*
X32986485Y58478343D01*
X32994533Y58510471D01*
X33005691Y58541656D01*
X33019852Y58571596D01*
X33036879Y58600005D01*
X33056609Y58626608D01*
X33078851Y58651149D01*
X33103392Y58673391D01*
X33129995Y58693121D01*
X33158404Y58710148D01*
X33188344Y58724309D01*
X33219529Y58735467D01*
X33251657Y58743515D01*
X33284419Y58748375D01*
X33317500Y58750000D01*
X33992500Y58750000D01*
X34025581Y58748375D01*
X34025581Y58748375D01*
G37*
D23*
X33655000Y58025000D03*
D10*
G36*
X18150581Y56998375D02*
G01*
X18183343Y56993515D01*
X18215471Y56985467D01*
X18246656Y56974309D01*
X18276596Y56960148D01*
X18305005Y56943121D01*
X18331608Y56923391D01*
X18356149Y56901149D01*
X18378391Y56876608D01*
X18398121Y56850005D01*
X18415148Y56821596D01*
X18429309Y56791656D01*
X18440467Y56760471D01*
X18448515Y56728343D01*
X18453375Y56695581D01*
X18455000Y56662500D01*
X18455000Y55887500D01*
X18453375Y55854419D01*
X18448515Y55821657D01*
X18440467Y55789529D01*
X18429309Y55758344D01*
X18415148Y55728404D01*
X18398121Y55699995D01*
X18378391Y55673392D01*
X18356149Y55648851D01*
X18331608Y55626609D01*
X18305005Y55606879D01*
X18276596Y55589852D01*
X18246656Y55575691D01*
X18215471Y55564533D01*
X18183343Y55556485D01*
X18150581Y55551625D01*
X18117500Y55550000D01*
X17442500Y55550000D01*
X17409419Y55551625D01*
X17376657Y55556485D01*
X17344529Y55564533D01*
X17313344Y55575691D01*
X17283404Y55589852D01*
X17254995Y55606879D01*
X17228392Y55626609D01*
X17203851Y55648851D01*
X17181609Y55673392D01*
X17161879Y55699995D01*
X17144852Y55728404D01*
X17130691Y55758344D01*
X17119533Y55789529D01*
X17111485Y55821657D01*
X17106625Y55854419D01*
X17105000Y55887500D01*
X17105000Y56662500D01*
X17106625Y56695581D01*
X17111485Y56728343D01*
X17119533Y56760471D01*
X17130691Y56791656D01*
X17144852Y56821596D01*
X17161879Y56850005D01*
X17181609Y56876608D01*
X17203851Y56901149D01*
X17228392Y56923391D01*
X17254995Y56943121D01*
X17283404Y56960148D01*
X17313344Y56974309D01*
X17344529Y56985467D01*
X17376657Y56993515D01*
X17409419Y56998375D01*
X17442500Y57000000D01*
X18117500Y57000000D01*
X18150581Y56998375D01*
X18150581Y56998375D01*
G37*
D23*
X17780000Y56275000D03*
D10*
G36*
X18150581Y58748375D02*
G01*
X18183343Y58743515D01*
X18215471Y58735467D01*
X18246656Y58724309D01*
X18276596Y58710148D01*
X18305005Y58693121D01*
X18331608Y58673391D01*
X18356149Y58651149D01*
X18378391Y58626608D01*
X18398121Y58600005D01*
X18415148Y58571596D01*
X18429309Y58541656D01*
X18440467Y58510471D01*
X18448515Y58478343D01*
X18453375Y58445581D01*
X18455000Y58412500D01*
X18455000Y57637500D01*
X18453375Y57604419D01*
X18448515Y57571657D01*
X18440467Y57539529D01*
X18429309Y57508344D01*
X18415148Y57478404D01*
X18398121Y57449995D01*
X18378391Y57423392D01*
X18356149Y57398851D01*
X18331608Y57376609D01*
X18305005Y57356879D01*
X18276596Y57339852D01*
X18246656Y57325691D01*
X18215471Y57314533D01*
X18183343Y57306485D01*
X18150581Y57301625D01*
X18117500Y57300000D01*
X17442500Y57300000D01*
X17409419Y57301625D01*
X17376657Y57306485D01*
X17344529Y57314533D01*
X17313344Y57325691D01*
X17283404Y57339852D01*
X17254995Y57356879D01*
X17228392Y57376609D01*
X17203851Y57398851D01*
X17181609Y57423392D01*
X17161879Y57449995D01*
X17144852Y57478404D01*
X17130691Y57508344D01*
X17119533Y57539529D01*
X17111485Y57571657D01*
X17106625Y57604419D01*
X17105000Y57637500D01*
X17105000Y58412500D01*
X17106625Y58445581D01*
X17111485Y58478343D01*
X17119533Y58510471D01*
X17130691Y58541656D01*
X17144852Y58571596D01*
X17161879Y58600005D01*
X17181609Y58626608D01*
X17203851Y58651149D01*
X17228392Y58673391D01*
X17254995Y58693121D01*
X17283404Y58710148D01*
X17313344Y58724309D01*
X17344529Y58735467D01*
X17376657Y58743515D01*
X17409419Y58748375D01*
X17442500Y58750000D01*
X18117500Y58750000D01*
X18150581Y58748375D01*
X18150581Y58748375D01*
G37*
D23*
X17780000Y58025000D03*
D29*
X49530000Y48640000D03*
X49530000Y45340000D03*
X33655000Y48640000D03*
X33655000Y45340000D03*
X17780000Y48640000D03*
X17780000Y45340000D03*
D10*
G36*
X48630581Y41603375D02*
G01*
X48663343Y41598515D01*
X48695471Y41590467D01*
X48726656Y41579309D01*
X48756596Y41565148D01*
X48785005Y41548121D01*
X48811608Y41528391D01*
X48836149Y41506149D01*
X48858391Y41481608D01*
X48878121Y41455005D01*
X48895148Y41426596D01*
X48909309Y41396656D01*
X48920467Y41365471D01*
X48928515Y41333343D01*
X48933375Y41300581D01*
X48935000Y41267500D01*
X48935000Y40492500D01*
X48933375Y40459419D01*
X48928515Y40426657D01*
X48920467Y40394529D01*
X48909309Y40363344D01*
X48895148Y40333404D01*
X48878121Y40304995D01*
X48858391Y40278392D01*
X48836149Y40253851D01*
X48811608Y40231609D01*
X48785005Y40211879D01*
X48756596Y40194852D01*
X48726656Y40180691D01*
X48695471Y40169533D01*
X48663343Y40161485D01*
X48630581Y40156625D01*
X48597500Y40155000D01*
X47922500Y40155000D01*
X47889419Y40156625D01*
X47856657Y40161485D01*
X47824529Y40169533D01*
X47793344Y40180691D01*
X47763404Y40194852D01*
X47734995Y40211879D01*
X47708392Y40231609D01*
X47683851Y40253851D01*
X47661609Y40278392D01*
X47641879Y40304995D01*
X47624852Y40333404D01*
X47610691Y40363344D01*
X47599533Y40394529D01*
X47591485Y40426657D01*
X47586625Y40459419D01*
X47585000Y40492500D01*
X47585000Y41267500D01*
X47586625Y41300581D01*
X47591485Y41333343D01*
X47599533Y41365471D01*
X47610691Y41396656D01*
X47624852Y41426596D01*
X47641879Y41455005D01*
X47661609Y41481608D01*
X47683851Y41506149D01*
X47708392Y41528391D01*
X47734995Y41548121D01*
X47763404Y41565148D01*
X47793344Y41579309D01*
X47824529Y41590467D01*
X47856657Y41598515D01*
X47889419Y41603375D01*
X47922500Y41605000D01*
X48597500Y41605000D01*
X48630581Y41603375D01*
X48630581Y41603375D01*
G37*
D23*
X48260000Y40880000D03*
D10*
G36*
X48630581Y39853375D02*
G01*
X48663343Y39848515D01*
X48695471Y39840467D01*
X48726656Y39829309D01*
X48756596Y39815148D01*
X48785005Y39798121D01*
X48811608Y39778391D01*
X48836149Y39756149D01*
X48858391Y39731608D01*
X48878121Y39705005D01*
X48895148Y39676596D01*
X48909309Y39646656D01*
X48920467Y39615471D01*
X48928515Y39583343D01*
X48933375Y39550581D01*
X48935000Y39517500D01*
X48935000Y38742500D01*
X48933375Y38709419D01*
X48928515Y38676657D01*
X48920467Y38644529D01*
X48909309Y38613344D01*
X48895148Y38583404D01*
X48878121Y38554995D01*
X48858391Y38528392D01*
X48836149Y38503851D01*
X48811608Y38481609D01*
X48785005Y38461879D01*
X48756596Y38444852D01*
X48726656Y38430691D01*
X48695471Y38419533D01*
X48663343Y38411485D01*
X48630581Y38406625D01*
X48597500Y38405000D01*
X47922500Y38405000D01*
X47889419Y38406625D01*
X47856657Y38411485D01*
X47824529Y38419533D01*
X47793344Y38430691D01*
X47763404Y38444852D01*
X47734995Y38461879D01*
X47708392Y38481609D01*
X47683851Y38503851D01*
X47661609Y38528392D01*
X47641879Y38554995D01*
X47624852Y38583404D01*
X47610691Y38613344D01*
X47599533Y38644529D01*
X47591485Y38676657D01*
X47586625Y38709419D01*
X47585000Y38742500D01*
X47585000Y39517500D01*
X47586625Y39550581D01*
X47591485Y39583343D01*
X47599533Y39615471D01*
X47610691Y39646656D01*
X47624852Y39676596D01*
X47641879Y39705005D01*
X47661609Y39731608D01*
X47683851Y39756149D01*
X47708392Y39778391D01*
X47734995Y39798121D01*
X47763404Y39815148D01*
X47793344Y39829309D01*
X47824529Y39840467D01*
X47856657Y39848515D01*
X47889419Y39853375D01*
X47922500Y39855000D01*
X48597500Y39855000D01*
X48630581Y39853375D01*
X48630581Y39853375D01*
G37*
D23*
X48260000Y39130000D03*
D10*
G36*
X32755581Y41603375D02*
G01*
X32788343Y41598515D01*
X32820471Y41590467D01*
X32851656Y41579309D01*
X32881596Y41565148D01*
X32910005Y41548121D01*
X32936608Y41528391D01*
X32961149Y41506149D01*
X32983391Y41481608D01*
X33003121Y41455005D01*
X33020148Y41426596D01*
X33034309Y41396656D01*
X33045467Y41365471D01*
X33053515Y41333343D01*
X33058375Y41300581D01*
X33060000Y41267500D01*
X33060000Y40492500D01*
X33058375Y40459419D01*
X33053515Y40426657D01*
X33045467Y40394529D01*
X33034309Y40363344D01*
X33020148Y40333404D01*
X33003121Y40304995D01*
X32983391Y40278392D01*
X32961149Y40253851D01*
X32936608Y40231609D01*
X32910005Y40211879D01*
X32881596Y40194852D01*
X32851656Y40180691D01*
X32820471Y40169533D01*
X32788343Y40161485D01*
X32755581Y40156625D01*
X32722500Y40155000D01*
X32047500Y40155000D01*
X32014419Y40156625D01*
X31981657Y40161485D01*
X31949529Y40169533D01*
X31918344Y40180691D01*
X31888404Y40194852D01*
X31859995Y40211879D01*
X31833392Y40231609D01*
X31808851Y40253851D01*
X31786609Y40278392D01*
X31766879Y40304995D01*
X31749852Y40333404D01*
X31735691Y40363344D01*
X31724533Y40394529D01*
X31716485Y40426657D01*
X31711625Y40459419D01*
X31710000Y40492500D01*
X31710000Y41267500D01*
X31711625Y41300581D01*
X31716485Y41333343D01*
X31724533Y41365471D01*
X31735691Y41396656D01*
X31749852Y41426596D01*
X31766879Y41455005D01*
X31786609Y41481608D01*
X31808851Y41506149D01*
X31833392Y41528391D01*
X31859995Y41548121D01*
X31888404Y41565148D01*
X31918344Y41579309D01*
X31949529Y41590467D01*
X31981657Y41598515D01*
X32014419Y41603375D01*
X32047500Y41605000D01*
X32722500Y41605000D01*
X32755581Y41603375D01*
X32755581Y41603375D01*
G37*
D23*
X32385000Y40880000D03*
D10*
G36*
X32755581Y39853375D02*
G01*
X32788343Y39848515D01*
X32820471Y39840467D01*
X32851656Y39829309D01*
X32881596Y39815148D01*
X32910005Y39798121D01*
X32936608Y39778391D01*
X32961149Y39756149D01*
X32983391Y39731608D01*
X33003121Y39705005D01*
X33020148Y39676596D01*
X33034309Y39646656D01*
X33045467Y39615471D01*
X33053515Y39583343D01*
X33058375Y39550581D01*
X33060000Y39517500D01*
X33060000Y38742500D01*
X33058375Y38709419D01*
X33053515Y38676657D01*
X33045467Y38644529D01*
X33034309Y38613344D01*
X33020148Y38583404D01*
X33003121Y38554995D01*
X32983391Y38528392D01*
X32961149Y38503851D01*
X32936608Y38481609D01*
X32910005Y38461879D01*
X32881596Y38444852D01*
X32851656Y38430691D01*
X32820471Y38419533D01*
X32788343Y38411485D01*
X32755581Y38406625D01*
X32722500Y38405000D01*
X32047500Y38405000D01*
X32014419Y38406625D01*
X31981657Y38411485D01*
X31949529Y38419533D01*
X31918344Y38430691D01*
X31888404Y38444852D01*
X31859995Y38461879D01*
X31833392Y38481609D01*
X31808851Y38503851D01*
X31786609Y38528392D01*
X31766879Y38554995D01*
X31749852Y38583404D01*
X31735691Y38613344D01*
X31724533Y38644529D01*
X31716485Y38676657D01*
X31711625Y38709419D01*
X31710000Y38742500D01*
X31710000Y39517500D01*
X31711625Y39550581D01*
X31716485Y39583343D01*
X31724533Y39615471D01*
X31735691Y39646656D01*
X31749852Y39676596D01*
X31766879Y39705005D01*
X31786609Y39731608D01*
X31808851Y39756149D01*
X31833392Y39778391D01*
X31859995Y39798121D01*
X31888404Y39815148D01*
X31918344Y39829309D01*
X31949529Y39840467D01*
X31981657Y39848515D01*
X32014419Y39853375D01*
X32047500Y39855000D01*
X32722500Y39855000D01*
X32755581Y39853375D01*
X32755581Y39853375D01*
G37*
D23*
X32385000Y39130000D03*
D10*
G36*
X16880581Y41603375D02*
G01*
X16913343Y41598515D01*
X16945471Y41590467D01*
X16976656Y41579309D01*
X17006596Y41565148D01*
X17035005Y41548121D01*
X17061608Y41528391D01*
X17086149Y41506149D01*
X17108391Y41481608D01*
X17128121Y41455005D01*
X17145148Y41426596D01*
X17159309Y41396656D01*
X17170467Y41365471D01*
X17178515Y41333343D01*
X17183375Y41300581D01*
X17185000Y41267500D01*
X17185000Y40492500D01*
X17183375Y40459419D01*
X17178515Y40426657D01*
X17170467Y40394529D01*
X17159309Y40363344D01*
X17145148Y40333404D01*
X17128121Y40304995D01*
X17108391Y40278392D01*
X17086149Y40253851D01*
X17061608Y40231609D01*
X17035005Y40211879D01*
X17006596Y40194852D01*
X16976656Y40180691D01*
X16945471Y40169533D01*
X16913343Y40161485D01*
X16880581Y40156625D01*
X16847500Y40155000D01*
X16172500Y40155000D01*
X16139419Y40156625D01*
X16106657Y40161485D01*
X16074529Y40169533D01*
X16043344Y40180691D01*
X16013404Y40194852D01*
X15984995Y40211879D01*
X15958392Y40231609D01*
X15933851Y40253851D01*
X15911609Y40278392D01*
X15891879Y40304995D01*
X15874852Y40333404D01*
X15860691Y40363344D01*
X15849533Y40394529D01*
X15841485Y40426657D01*
X15836625Y40459419D01*
X15835000Y40492500D01*
X15835000Y41267500D01*
X15836625Y41300581D01*
X15841485Y41333343D01*
X15849533Y41365471D01*
X15860691Y41396656D01*
X15874852Y41426596D01*
X15891879Y41455005D01*
X15911609Y41481608D01*
X15933851Y41506149D01*
X15958392Y41528391D01*
X15984995Y41548121D01*
X16013404Y41565148D01*
X16043344Y41579309D01*
X16074529Y41590467D01*
X16106657Y41598515D01*
X16139419Y41603375D01*
X16172500Y41605000D01*
X16847500Y41605000D01*
X16880581Y41603375D01*
X16880581Y41603375D01*
G37*
D23*
X16510000Y40880000D03*
D10*
G36*
X16880581Y39853375D02*
G01*
X16913343Y39848515D01*
X16945471Y39840467D01*
X16976656Y39829309D01*
X17006596Y39815148D01*
X17035005Y39798121D01*
X17061608Y39778391D01*
X17086149Y39756149D01*
X17108391Y39731608D01*
X17128121Y39705005D01*
X17145148Y39676596D01*
X17159309Y39646656D01*
X17170467Y39615471D01*
X17178515Y39583343D01*
X17183375Y39550581D01*
X17185000Y39517500D01*
X17185000Y38742500D01*
X17183375Y38709419D01*
X17178515Y38676657D01*
X17170467Y38644529D01*
X17159309Y38613344D01*
X17145148Y38583404D01*
X17128121Y38554995D01*
X17108391Y38528392D01*
X17086149Y38503851D01*
X17061608Y38481609D01*
X17035005Y38461879D01*
X17006596Y38444852D01*
X16976656Y38430691D01*
X16945471Y38419533D01*
X16913343Y38411485D01*
X16880581Y38406625D01*
X16847500Y38405000D01*
X16172500Y38405000D01*
X16139419Y38406625D01*
X16106657Y38411485D01*
X16074529Y38419533D01*
X16043344Y38430691D01*
X16013404Y38444852D01*
X15984995Y38461879D01*
X15958392Y38481609D01*
X15933851Y38503851D01*
X15911609Y38528392D01*
X15891879Y38554995D01*
X15874852Y38583404D01*
X15860691Y38613344D01*
X15849533Y38644529D01*
X15841485Y38676657D01*
X15836625Y38709419D01*
X15835000Y38742500D01*
X15835000Y39517500D01*
X15836625Y39550581D01*
X15841485Y39583343D01*
X15849533Y39615471D01*
X15860691Y39646656D01*
X15874852Y39676596D01*
X15891879Y39705005D01*
X15911609Y39731608D01*
X15933851Y39756149D01*
X15958392Y39778391D01*
X15984995Y39798121D01*
X16013404Y39815148D01*
X16043344Y39829309D01*
X16074529Y39840467D01*
X16106657Y39848515D01*
X16139419Y39853375D01*
X16172500Y39855000D01*
X16847500Y39855000D01*
X16880581Y39853375D01*
X16880581Y39853375D01*
G37*
D23*
X16510000Y39130000D03*
D20*
X52705000Y39275000D03*
D14*
X52705000Y41275000D03*
D20*
X36830000Y39275000D03*
D14*
X36830000Y41275000D03*
D20*
X20955000Y39275000D03*
D14*
X20955000Y41275000D03*
D20*
X42704000Y57404000D03*
D14*
X44704000Y57404000D03*
D20*
X26956000Y57404000D03*
D14*
X28956000Y57404000D03*
D20*
X10954000Y57404000D03*
D14*
X12954000Y57404000D03*
D10*
G36*
X43360581Y54013375D02*
G01*
X43393343Y54008515D01*
X43425471Y54000467D01*
X43456656Y53989309D01*
X43486596Y53975148D01*
X43515005Y53958121D01*
X43541608Y53938391D01*
X43566149Y53916149D01*
X43588391Y53891608D01*
X43608121Y53865005D01*
X43625148Y53836596D01*
X43639309Y53806656D01*
X43650467Y53775471D01*
X43658515Y53743343D01*
X43663375Y53710581D01*
X43665000Y53677500D01*
X43665000Y53002500D01*
X43663375Y52969419D01*
X43658515Y52936657D01*
X43650467Y52904529D01*
X43639309Y52873344D01*
X43625148Y52843404D01*
X43608121Y52814995D01*
X43588391Y52788392D01*
X43566149Y52763851D01*
X43541608Y52741609D01*
X43515005Y52721879D01*
X43486596Y52704852D01*
X43456656Y52690691D01*
X43425471Y52679533D01*
X43393343Y52671485D01*
X43360581Y52666625D01*
X43327500Y52665000D01*
X42552500Y52665000D01*
X42519419Y52666625D01*
X42486657Y52671485D01*
X42454529Y52679533D01*
X42423344Y52690691D01*
X42393404Y52704852D01*
X42364995Y52721879D01*
X42338392Y52741609D01*
X42313851Y52763851D01*
X42291609Y52788392D01*
X42271879Y52814995D01*
X42254852Y52843404D01*
X42240691Y52873344D01*
X42229533Y52904529D01*
X42221485Y52936657D01*
X42216625Y52969419D01*
X42215000Y53002500D01*
X42215000Y53677500D01*
X42216625Y53710581D01*
X42221485Y53743343D01*
X42229533Y53775471D01*
X42240691Y53806656D01*
X42254852Y53836596D01*
X42271879Y53865005D01*
X42291609Y53891608D01*
X42313851Y53916149D01*
X42338392Y53938391D01*
X42364995Y53958121D01*
X42393404Y53975148D01*
X42423344Y53989309D01*
X42454529Y54000467D01*
X42486657Y54008515D01*
X42519419Y54013375D01*
X42552500Y54015000D01*
X43327500Y54015000D01*
X43360581Y54013375D01*
X43360581Y54013375D01*
G37*
D23*
X42940000Y53340000D03*
D10*
G36*
X45110581Y54013375D02*
G01*
X45143343Y54008515D01*
X45175471Y54000467D01*
X45206656Y53989309D01*
X45236596Y53975148D01*
X45265005Y53958121D01*
X45291608Y53938391D01*
X45316149Y53916149D01*
X45338391Y53891608D01*
X45358121Y53865005D01*
X45375148Y53836596D01*
X45389309Y53806656D01*
X45400467Y53775471D01*
X45408515Y53743343D01*
X45413375Y53710581D01*
X45415000Y53677500D01*
X45415000Y53002500D01*
X45413375Y52969419D01*
X45408515Y52936657D01*
X45400467Y52904529D01*
X45389309Y52873344D01*
X45375148Y52843404D01*
X45358121Y52814995D01*
X45338391Y52788392D01*
X45316149Y52763851D01*
X45291608Y52741609D01*
X45265005Y52721879D01*
X45236596Y52704852D01*
X45206656Y52690691D01*
X45175471Y52679533D01*
X45143343Y52671485D01*
X45110581Y52666625D01*
X45077500Y52665000D01*
X44302500Y52665000D01*
X44269419Y52666625D01*
X44236657Y52671485D01*
X44204529Y52679533D01*
X44173344Y52690691D01*
X44143404Y52704852D01*
X44114995Y52721879D01*
X44088392Y52741609D01*
X44063851Y52763851D01*
X44041609Y52788392D01*
X44021879Y52814995D01*
X44004852Y52843404D01*
X43990691Y52873344D01*
X43979533Y52904529D01*
X43971485Y52936657D01*
X43966625Y52969419D01*
X43965000Y53002500D01*
X43965000Y53677500D01*
X43966625Y53710581D01*
X43971485Y53743343D01*
X43979533Y53775471D01*
X43990691Y53806656D01*
X44004852Y53836596D01*
X44021879Y53865005D01*
X44041609Y53891608D01*
X44063851Y53916149D01*
X44088392Y53938391D01*
X44114995Y53958121D01*
X44143404Y53975148D01*
X44173344Y53989309D01*
X44204529Y54000467D01*
X44236657Y54008515D01*
X44269419Y54013375D01*
X44302500Y54015000D01*
X45077500Y54015000D01*
X45110581Y54013375D01*
X45110581Y54013375D01*
G37*
D23*
X44690000Y53340000D03*
D10*
G36*
X27485581Y54013375D02*
G01*
X27518343Y54008515D01*
X27550471Y54000467D01*
X27581656Y53989309D01*
X27611596Y53975148D01*
X27640005Y53958121D01*
X27666608Y53938391D01*
X27691149Y53916149D01*
X27713391Y53891608D01*
X27733121Y53865005D01*
X27750148Y53836596D01*
X27764309Y53806656D01*
X27775467Y53775471D01*
X27783515Y53743343D01*
X27788375Y53710581D01*
X27790000Y53677500D01*
X27790000Y53002500D01*
X27788375Y52969419D01*
X27783515Y52936657D01*
X27775467Y52904529D01*
X27764309Y52873344D01*
X27750148Y52843404D01*
X27733121Y52814995D01*
X27713391Y52788392D01*
X27691149Y52763851D01*
X27666608Y52741609D01*
X27640005Y52721879D01*
X27611596Y52704852D01*
X27581656Y52690691D01*
X27550471Y52679533D01*
X27518343Y52671485D01*
X27485581Y52666625D01*
X27452500Y52665000D01*
X26677500Y52665000D01*
X26644419Y52666625D01*
X26611657Y52671485D01*
X26579529Y52679533D01*
X26548344Y52690691D01*
X26518404Y52704852D01*
X26489995Y52721879D01*
X26463392Y52741609D01*
X26438851Y52763851D01*
X26416609Y52788392D01*
X26396879Y52814995D01*
X26379852Y52843404D01*
X26365691Y52873344D01*
X26354533Y52904529D01*
X26346485Y52936657D01*
X26341625Y52969419D01*
X26340000Y53002500D01*
X26340000Y53677500D01*
X26341625Y53710581D01*
X26346485Y53743343D01*
X26354533Y53775471D01*
X26365691Y53806656D01*
X26379852Y53836596D01*
X26396879Y53865005D01*
X26416609Y53891608D01*
X26438851Y53916149D01*
X26463392Y53938391D01*
X26489995Y53958121D01*
X26518404Y53975148D01*
X26548344Y53989309D01*
X26579529Y54000467D01*
X26611657Y54008515D01*
X26644419Y54013375D01*
X26677500Y54015000D01*
X27452500Y54015000D01*
X27485581Y54013375D01*
X27485581Y54013375D01*
G37*
D23*
X27065000Y53340000D03*
D10*
G36*
X29235581Y54013375D02*
G01*
X29268343Y54008515D01*
X29300471Y54000467D01*
X29331656Y53989309D01*
X29361596Y53975148D01*
X29390005Y53958121D01*
X29416608Y53938391D01*
X29441149Y53916149D01*
X29463391Y53891608D01*
X29483121Y53865005D01*
X29500148Y53836596D01*
X29514309Y53806656D01*
X29525467Y53775471D01*
X29533515Y53743343D01*
X29538375Y53710581D01*
X29540000Y53677500D01*
X29540000Y53002500D01*
X29538375Y52969419D01*
X29533515Y52936657D01*
X29525467Y52904529D01*
X29514309Y52873344D01*
X29500148Y52843404D01*
X29483121Y52814995D01*
X29463391Y52788392D01*
X29441149Y52763851D01*
X29416608Y52741609D01*
X29390005Y52721879D01*
X29361596Y52704852D01*
X29331656Y52690691D01*
X29300471Y52679533D01*
X29268343Y52671485D01*
X29235581Y52666625D01*
X29202500Y52665000D01*
X28427500Y52665000D01*
X28394419Y52666625D01*
X28361657Y52671485D01*
X28329529Y52679533D01*
X28298344Y52690691D01*
X28268404Y52704852D01*
X28239995Y52721879D01*
X28213392Y52741609D01*
X28188851Y52763851D01*
X28166609Y52788392D01*
X28146879Y52814995D01*
X28129852Y52843404D01*
X28115691Y52873344D01*
X28104533Y52904529D01*
X28096485Y52936657D01*
X28091625Y52969419D01*
X28090000Y53002500D01*
X28090000Y53677500D01*
X28091625Y53710581D01*
X28096485Y53743343D01*
X28104533Y53775471D01*
X28115691Y53806656D01*
X28129852Y53836596D01*
X28146879Y53865005D01*
X28166609Y53891608D01*
X28188851Y53916149D01*
X28213392Y53938391D01*
X28239995Y53958121D01*
X28268404Y53975148D01*
X28298344Y53989309D01*
X28329529Y54000467D01*
X28361657Y54008515D01*
X28394419Y54013375D01*
X28427500Y54015000D01*
X29202500Y54015000D01*
X29235581Y54013375D01*
X29235581Y54013375D01*
G37*
D23*
X28815000Y53340000D03*
D10*
G36*
X11610581Y54013375D02*
G01*
X11643343Y54008515D01*
X11675471Y54000467D01*
X11706656Y53989309D01*
X11736596Y53975148D01*
X11765005Y53958121D01*
X11791608Y53938391D01*
X11816149Y53916149D01*
X11838391Y53891608D01*
X11858121Y53865005D01*
X11875148Y53836596D01*
X11889309Y53806656D01*
X11900467Y53775471D01*
X11908515Y53743343D01*
X11913375Y53710581D01*
X11915000Y53677500D01*
X11915000Y53002500D01*
X11913375Y52969419D01*
X11908515Y52936657D01*
X11900467Y52904529D01*
X11889309Y52873344D01*
X11875148Y52843404D01*
X11858121Y52814995D01*
X11838391Y52788392D01*
X11816149Y52763851D01*
X11791608Y52741609D01*
X11765005Y52721879D01*
X11736596Y52704852D01*
X11706656Y52690691D01*
X11675471Y52679533D01*
X11643343Y52671485D01*
X11610581Y52666625D01*
X11577500Y52665000D01*
X10802500Y52665000D01*
X10769419Y52666625D01*
X10736657Y52671485D01*
X10704529Y52679533D01*
X10673344Y52690691D01*
X10643404Y52704852D01*
X10614995Y52721879D01*
X10588392Y52741609D01*
X10563851Y52763851D01*
X10541609Y52788392D01*
X10521879Y52814995D01*
X10504852Y52843404D01*
X10490691Y52873344D01*
X10479533Y52904529D01*
X10471485Y52936657D01*
X10466625Y52969419D01*
X10465000Y53002500D01*
X10465000Y53677500D01*
X10466625Y53710581D01*
X10471485Y53743343D01*
X10479533Y53775471D01*
X10490691Y53806656D01*
X10504852Y53836596D01*
X10521879Y53865005D01*
X10541609Y53891608D01*
X10563851Y53916149D01*
X10588392Y53938391D01*
X10614995Y53958121D01*
X10643404Y53975148D01*
X10673344Y53989309D01*
X10704529Y54000467D01*
X10736657Y54008515D01*
X10769419Y54013375D01*
X10802500Y54015000D01*
X11577500Y54015000D01*
X11610581Y54013375D01*
X11610581Y54013375D01*
G37*
D23*
X11190000Y53340000D03*
D10*
G36*
X13360581Y54013375D02*
G01*
X13393343Y54008515D01*
X13425471Y54000467D01*
X13456656Y53989309D01*
X13486596Y53975148D01*
X13515005Y53958121D01*
X13541608Y53938391D01*
X13566149Y53916149D01*
X13588391Y53891608D01*
X13608121Y53865005D01*
X13625148Y53836596D01*
X13639309Y53806656D01*
X13650467Y53775471D01*
X13658515Y53743343D01*
X13663375Y53710581D01*
X13665000Y53677500D01*
X13665000Y53002500D01*
X13663375Y52969419D01*
X13658515Y52936657D01*
X13650467Y52904529D01*
X13639309Y52873344D01*
X13625148Y52843404D01*
X13608121Y52814995D01*
X13588391Y52788392D01*
X13566149Y52763851D01*
X13541608Y52741609D01*
X13515005Y52721879D01*
X13486596Y52704852D01*
X13456656Y52690691D01*
X13425471Y52679533D01*
X13393343Y52671485D01*
X13360581Y52666625D01*
X13327500Y52665000D01*
X12552500Y52665000D01*
X12519419Y52666625D01*
X12486657Y52671485D01*
X12454529Y52679533D01*
X12423344Y52690691D01*
X12393404Y52704852D01*
X12364995Y52721879D01*
X12338392Y52741609D01*
X12313851Y52763851D01*
X12291609Y52788392D01*
X12271879Y52814995D01*
X12254852Y52843404D01*
X12240691Y52873344D01*
X12229533Y52904529D01*
X12221485Y52936657D01*
X12216625Y52969419D01*
X12215000Y53002500D01*
X12215000Y53677500D01*
X12216625Y53710581D01*
X12221485Y53743343D01*
X12229533Y53775471D01*
X12240691Y53806656D01*
X12254852Y53836596D01*
X12271879Y53865005D01*
X12291609Y53891608D01*
X12313851Y53916149D01*
X12338392Y53938391D01*
X12364995Y53958121D01*
X12393404Y53975148D01*
X12423344Y53989309D01*
X12454529Y54000467D01*
X12486657Y54008515D01*
X12519419Y54013375D01*
X12552500Y54015000D01*
X13327500Y54015000D01*
X13360581Y54013375D01*
X13360581Y54013375D01*
G37*
D23*
X12940000Y53340000D03*
D10*
G36*
X25580581Y85128375D02*
G01*
X25613343Y85123515D01*
X25645471Y85115467D01*
X25676656Y85104309D01*
X25706596Y85090148D01*
X25735005Y85073121D01*
X25761608Y85053391D01*
X25786149Y85031149D01*
X25808391Y85006608D01*
X25828121Y84980005D01*
X25845148Y84951596D01*
X25859309Y84921656D01*
X25870467Y84890471D01*
X25878515Y84858343D01*
X25883375Y84825581D01*
X25885000Y84792500D01*
X25885000Y84117500D01*
X25883375Y84084419D01*
X25878515Y84051657D01*
X25870467Y84019529D01*
X25859309Y83988344D01*
X25845148Y83958404D01*
X25828121Y83929995D01*
X25808391Y83903392D01*
X25786149Y83878851D01*
X25761608Y83856609D01*
X25735005Y83836879D01*
X25706596Y83819852D01*
X25676656Y83805691D01*
X25645471Y83794533D01*
X25613343Y83786485D01*
X25580581Y83781625D01*
X25547500Y83780000D01*
X24772500Y83780000D01*
X24739419Y83781625D01*
X24706657Y83786485D01*
X24674529Y83794533D01*
X24643344Y83805691D01*
X24613404Y83819852D01*
X24584995Y83836879D01*
X24558392Y83856609D01*
X24533851Y83878851D01*
X24511609Y83903392D01*
X24491879Y83929995D01*
X24474852Y83958404D01*
X24460691Y83988344D01*
X24449533Y84019529D01*
X24441485Y84051657D01*
X24436625Y84084419D01*
X24435000Y84117500D01*
X24435000Y84792500D01*
X24436625Y84825581D01*
X24441485Y84858343D01*
X24449533Y84890471D01*
X24460691Y84921656D01*
X24474852Y84951596D01*
X24491879Y84980005D01*
X24511609Y85006608D01*
X24533851Y85031149D01*
X24558392Y85053391D01*
X24584995Y85073121D01*
X24613404Y85090148D01*
X24643344Y85104309D01*
X24674529Y85115467D01*
X24706657Y85123515D01*
X24739419Y85128375D01*
X24772500Y85130000D01*
X25547500Y85130000D01*
X25580581Y85128375D01*
X25580581Y85128375D01*
G37*
D23*
X25160000Y84455000D03*
D10*
G36*
X27330581Y85128375D02*
G01*
X27363343Y85123515D01*
X27395471Y85115467D01*
X27426656Y85104309D01*
X27456596Y85090148D01*
X27485005Y85073121D01*
X27511608Y85053391D01*
X27536149Y85031149D01*
X27558391Y85006608D01*
X27578121Y84980005D01*
X27595148Y84951596D01*
X27609309Y84921656D01*
X27620467Y84890471D01*
X27628515Y84858343D01*
X27633375Y84825581D01*
X27635000Y84792500D01*
X27635000Y84117500D01*
X27633375Y84084419D01*
X27628515Y84051657D01*
X27620467Y84019529D01*
X27609309Y83988344D01*
X27595148Y83958404D01*
X27578121Y83929995D01*
X27558391Y83903392D01*
X27536149Y83878851D01*
X27511608Y83856609D01*
X27485005Y83836879D01*
X27456596Y83819852D01*
X27426656Y83805691D01*
X27395471Y83794533D01*
X27363343Y83786485D01*
X27330581Y83781625D01*
X27297500Y83780000D01*
X26522500Y83780000D01*
X26489419Y83781625D01*
X26456657Y83786485D01*
X26424529Y83794533D01*
X26393344Y83805691D01*
X26363404Y83819852D01*
X26334995Y83836879D01*
X26308392Y83856609D01*
X26283851Y83878851D01*
X26261609Y83903392D01*
X26241879Y83929995D01*
X26224852Y83958404D01*
X26210691Y83988344D01*
X26199533Y84019529D01*
X26191485Y84051657D01*
X26186625Y84084419D01*
X26185000Y84117500D01*
X26185000Y84792500D01*
X26186625Y84825581D01*
X26191485Y84858343D01*
X26199533Y84890471D01*
X26210691Y84921656D01*
X26224852Y84951596D01*
X26241879Y84980005D01*
X26261609Y85006608D01*
X26283851Y85031149D01*
X26308392Y85053391D01*
X26334995Y85073121D01*
X26363404Y85090148D01*
X26393344Y85104309D01*
X26424529Y85115467D01*
X26456657Y85123515D01*
X26489419Y85128375D01*
X26522500Y85130000D01*
X27297500Y85130000D01*
X27330581Y85128375D01*
X27330581Y85128375D01*
G37*
D23*
X26910000Y84455000D03*
D10*
G36*
X61140581Y58458375D02*
G01*
X61173343Y58453515D01*
X61205471Y58445467D01*
X61236656Y58434309D01*
X61266596Y58420148D01*
X61295005Y58403121D01*
X61321608Y58383391D01*
X61346149Y58361149D01*
X61368391Y58336608D01*
X61388121Y58310005D01*
X61405148Y58281596D01*
X61419309Y58251656D01*
X61430467Y58220471D01*
X61438515Y58188343D01*
X61443375Y58155581D01*
X61445000Y58122500D01*
X61445000Y57447500D01*
X61443375Y57414419D01*
X61438515Y57381657D01*
X61430467Y57349529D01*
X61419309Y57318344D01*
X61405148Y57288404D01*
X61388121Y57259995D01*
X61368391Y57233392D01*
X61346149Y57208851D01*
X61321608Y57186609D01*
X61295005Y57166879D01*
X61266596Y57149852D01*
X61236656Y57135691D01*
X61205471Y57124533D01*
X61173343Y57116485D01*
X61140581Y57111625D01*
X61107500Y57110000D01*
X60332500Y57110000D01*
X60299419Y57111625D01*
X60266657Y57116485D01*
X60234529Y57124533D01*
X60203344Y57135691D01*
X60173404Y57149852D01*
X60144995Y57166879D01*
X60118392Y57186609D01*
X60093851Y57208851D01*
X60071609Y57233392D01*
X60051879Y57259995D01*
X60034852Y57288404D01*
X60020691Y57318344D01*
X60009533Y57349529D01*
X60001485Y57381657D01*
X59996625Y57414419D01*
X59995000Y57447500D01*
X59995000Y58122500D01*
X59996625Y58155581D01*
X60001485Y58188343D01*
X60009533Y58220471D01*
X60020691Y58251656D01*
X60034852Y58281596D01*
X60051879Y58310005D01*
X60071609Y58336608D01*
X60093851Y58361149D01*
X60118392Y58383391D01*
X60144995Y58403121D01*
X60173404Y58420148D01*
X60203344Y58434309D01*
X60234529Y58445467D01*
X60266657Y58453515D01*
X60299419Y58458375D01*
X60332500Y58460000D01*
X61107500Y58460000D01*
X61140581Y58458375D01*
X61140581Y58458375D01*
G37*
D23*
X60720000Y57785000D03*
D10*
G36*
X62890581Y58458375D02*
G01*
X62923343Y58453515D01*
X62955471Y58445467D01*
X62986656Y58434309D01*
X63016596Y58420148D01*
X63045005Y58403121D01*
X63071608Y58383391D01*
X63096149Y58361149D01*
X63118391Y58336608D01*
X63138121Y58310005D01*
X63155148Y58281596D01*
X63169309Y58251656D01*
X63180467Y58220471D01*
X63188515Y58188343D01*
X63193375Y58155581D01*
X63195000Y58122500D01*
X63195000Y57447500D01*
X63193375Y57414419D01*
X63188515Y57381657D01*
X63180467Y57349529D01*
X63169309Y57318344D01*
X63155148Y57288404D01*
X63138121Y57259995D01*
X63118391Y57233392D01*
X63096149Y57208851D01*
X63071608Y57186609D01*
X63045005Y57166879D01*
X63016596Y57149852D01*
X62986656Y57135691D01*
X62955471Y57124533D01*
X62923343Y57116485D01*
X62890581Y57111625D01*
X62857500Y57110000D01*
X62082500Y57110000D01*
X62049419Y57111625D01*
X62016657Y57116485D01*
X61984529Y57124533D01*
X61953344Y57135691D01*
X61923404Y57149852D01*
X61894995Y57166879D01*
X61868392Y57186609D01*
X61843851Y57208851D01*
X61821609Y57233392D01*
X61801879Y57259995D01*
X61784852Y57288404D01*
X61770691Y57318344D01*
X61759533Y57349529D01*
X61751485Y57381657D01*
X61746625Y57414419D01*
X61745000Y57447500D01*
X61745000Y58122500D01*
X61746625Y58155581D01*
X61751485Y58188343D01*
X61759533Y58220471D01*
X61770691Y58251656D01*
X61784852Y58281596D01*
X61801879Y58310005D01*
X61821609Y58336608D01*
X61843851Y58361149D01*
X61868392Y58383391D01*
X61894995Y58403121D01*
X61923404Y58420148D01*
X61953344Y58434309D01*
X61984529Y58445467D01*
X62016657Y58453515D01*
X62049419Y58458375D01*
X62082500Y58460000D01*
X62857500Y58460000D01*
X62890581Y58458375D01*
X62890581Y58458375D01*
G37*
D23*
X62470000Y57785000D03*
D10*
G36*
X61140581Y48298375D02*
G01*
X61173343Y48293515D01*
X61205471Y48285467D01*
X61236656Y48274309D01*
X61266596Y48260148D01*
X61295005Y48243121D01*
X61321608Y48223391D01*
X61346149Y48201149D01*
X61368391Y48176608D01*
X61388121Y48150005D01*
X61405148Y48121596D01*
X61419309Y48091656D01*
X61430467Y48060471D01*
X61438515Y48028343D01*
X61443375Y47995581D01*
X61445000Y47962500D01*
X61445000Y47287500D01*
X61443375Y47254419D01*
X61438515Y47221657D01*
X61430467Y47189529D01*
X61419309Y47158344D01*
X61405148Y47128404D01*
X61388121Y47099995D01*
X61368391Y47073392D01*
X61346149Y47048851D01*
X61321608Y47026609D01*
X61295005Y47006879D01*
X61266596Y46989852D01*
X61236656Y46975691D01*
X61205471Y46964533D01*
X61173343Y46956485D01*
X61140581Y46951625D01*
X61107500Y46950000D01*
X60332500Y46950000D01*
X60299419Y46951625D01*
X60266657Y46956485D01*
X60234529Y46964533D01*
X60203344Y46975691D01*
X60173404Y46989852D01*
X60144995Y47006879D01*
X60118392Y47026609D01*
X60093851Y47048851D01*
X60071609Y47073392D01*
X60051879Y47099995D01*
X60034852Y47128404D01*
X60020691Y47158344D01*
X60009533Y47189529D01*
X60001485Y47221657D01*
X59996625Y47254419D01*
X59995000Y47287500D01*
X59995000Y47962500D01*
X59996625Y47995581D01*
X60001485Y48028343D01*
X60009533Y48060471D01*
X60020691Y48091656D01*
X60034852Y48121596D01*
X60051879Y48150005D01*
X60071609Y48176608D01*
X60093851Y48201149D01*
X60118392Y48223391D01*
X60144995Y48243121D01*
X60173404Y48260148D01*
X60203344Y48274309D01*
X60234529Y48285467D01*
X60266657Y48293515D01*
X60299419Y48298375D01*
X60332500Y48300000D01*
X61107500Y48300000D01*
X61140581Y48298375D01*
X61140581Y48298375D01*
G37*
D23*
X60720000Y47625000D03*
D10*
G36*
X62890581Y48298375D02*
G01*
X62923343Y48293515D01*
X62955471Y48285467D01*
X62986656Y48274309D01*
X63016596Y48260148D01*
X63045005Y48243121D01*
X63071608Y48223391D01*
X63096149Y48201149D01*
X63118391Y48176608D01*
X63138121Y48150005D01*
X63155148Y48121596D01*
X63169309Y48091656D01*
X63180467Y48060471D01*
X63188515Y48028343D01*
X63193375Y47995581D01*
X63195000Y47962500D01*
X63195000Y47287500D01*
X63193375Y47254419D01*
X63188515Y47221657D01*
X63180467Y47189529D01*
X63169309Y47158344D01*
X63155148Y47128404D01*
X63138121Y47099995D01*
X63118391Y47073392D01*
X63096149Y47048851D01*
X63071608Y47026609D01*
X63045005Y47006879D01*
X63016596Y46989852D01*
X62986656Y46975691D01*
X62955471Y46964533D01*
X62923343Y46956485D01*
X62890581Y46951625D01*
X62857500Y46950000D01*
X62082500Y46950000D01*
X62049419Y46951625D01*
X62016657Y46956485D01*
X61984529Y46964533D01*
X61953344Y46975691D01*
X61923404Y46989852D01*
X61894995Y47006879D01*
X61868392Y47026609D01*
X61843851Y47048851D01*
X61821609Y47073392D01*
X61801879Y47099995D01*
X61784852Y47128404D01*
X61770691Y47158344D01*
X61759533Y47189529D01*
X61751485Y47221657D01*
X61746625Y47254419D01*
X61745000Y47287500D01*
X61745000Y47962500D01*
X61746625Y47995581D01*
X61751485Y48028343D01*
X61759533Y48060471D01*
X61770691Y48091656D01*
X61784852Y48121596D01*
X61801879Y48150005D01*
X61821609Y48176608D01*
X61843851Y48201149D01*
X61868392Y48223391D01*
X61894995Y48243121D01*
X61923404Y48260148D01*
X61953344Y48274309D01*
X61984529Y48285467D01*
X62016657Y48293515D01*
X62049419Y48298375D01*
X62082500Y48300000D01*
X62857500Y48300000D01*
X62890581Y48298375D01*
X62890581Y48298375D01*
G37*
D23*
X62470000Y47625000D03*
M02*
