M48
; DRILL file {KiCad (5.1.2)-1} date 2019/11/10 18:16:23
; FORMAT={3:3/ absolute / metric / suppress leading zeros}
; #@! TF.CreationDate,2019-11-10T18:16:23+09:00
; #@! TF.GenerationSoftware,Kicad,Pcbnew,(5.1.2)-1
FMAT,2
METRIC,TZ
T1C0.400
T2C0.500
T3C0.800
T4C1.000
T5C1.100
T6C1.200
T7C3.200
T8C2.000
%
G90
G05
T1
X1270Y55880
X1270Y47625
X1270Y39370
X1270Y30480
X1270Y22860
X1270Y15240
X2540Y69215
X2540Y64770
X3302Y62484
X3302Y46482
X4318Y43942
X4445Y74295
X5461Y60325
X6350Y69215
X6350Y64770
X6604Y62992
X6985Y61849
X6985Y55880
X6985Y47625
X6985Y39370
X6985Y22860
X7620Y46482
X7620Y43942
X8255Y77470
X8573Y74930
X8890Y52705
X9525Y69215
X9525Y64770
X9652Y62992
X9652Y35814
X10160Y37465
X10795Y85090
X11430Y74105
X11811Y40386
X12000Y42000
X12700Y64770
X13335Y37719
X13335Y8890
X13335Y3810
X15226Y39130
X15240Y77470
X15240Y85090
X15240Y81915
X15240Y58420
X15240Y53340
X15708Y45505
X15875Y73279
X15875Y71120
X15875Y64770
X17780Y42545
X17780Y37465
X18415Y22225
X18415Y15875
X18542Y13716
X18796Y26289
X19050Y90805
X19050Y73279
X19050Y71120
X19050Y64770
X19050Y8890
X19050Y3810
X19050Y1270
X19304Y7620
X19431Y45212
X19685Y53340
X19685Y49530
X20320Y86614
X20320Y84455
X20320Y60960
X20320Y58420
X22225Y81915
X22225Y77470
X22225Y71120
X22225Y66040
X22225Y53340
X22225Y50165
X22509Y55596
X23622Y56134
X24384Y15748
X24384Y11557
X24765Y53340
X24765Y42482
X24765Y37465
X25146Y15748
X25146Y11557
X25400Y86360
X25590Y47562
X25654Y55880
X25908Y11557
X26035Y82550
X26035Y80010
X26035Y37719
X26670Y71120
X26670Y66040
X27305Y90805
X27305Y22225
X27305Y15875
X27305Y8890
X27305Y3810
X27305Y1270
X27432Y13589
X27686Y40322
X27686Y27178
X27686Y37719
X27940Y60325
X27940Y41910
X28448Y6604
X28575Y86360
X28905Y73279
X29210Y37465
X29704Y72376
X30099Y15748
X30099Y11557
X30988Y39116
X31115Y71120
X31115Y50800
X31115Y43180
X31750Y82550
X32385Y78105
X32385Y55880
X32385Y53340
X33274Y15748
X33274Y11557
X33655Y66040
X33655Y60325
X33655Y41910
X34036Y77470
X34036Y15748
X34036Y11557
X34798Y80518
X34798Y11557
X34925Y55880
X34925Y53340
X34925Y50165
X35560Y90805
X35560Y45085
X36195Y71120
X36195Y22225
X36195Y15875
X36195Y8890
X36195Y3810
X36195Y1270
X36576Y13716
X36830Y27178
X36893Y82614
X37084Y5588
X37338Y80645
X38100Y55880
X38100Y53340
X38100Y50165
X38184Y75184
X38354Y77470
X38521Y76200
X38692Y74168
X38735Y60325
X38989Y15748
X38989Y11557
X39370Y56134
X39370Y37465
X39878Y77470
X40005Y72390
X40005Y66040
X40640Y55880
X40640Y53340
X40640Y50165
X40640Y47498
X40640Y41910
X41783Y37465
X42164Y15748
X42164Y11557
X42418Y81724
X42418Y77724
X42545Y71120
X42545Y66040
X42926Y15748
X42926Y11557
X43180Y37402
X43498Y40894
X43671Y51435
X43688Y15748
X43688Y11557
X43815Y90805
X43942Y42164
X44450Y1270
X44704Y22225
X45085Y37719
X45085Y71120
X45085Y66040
X45974Y55372
X46355Y70485
X46355Y67310
X46355Y37465
X46976Y39130
X47053Y43243
X47498Y81788
X47498Y78486
X47498Y75692
X47498Y62738
X47625Y50800
X47625Y45720
X47752Y58420
X49530Y42164
X50038Y50546
X51435Y44450
X52070Y90805
X52070Y75121
X52070Y70485
X52070Y67310
X52705Y37465
X52705Y1270
X53340Y57150
X53340Y47625
X55118Y65913
X56515Y62230
X56515Y57150
X56515Y45720
X56515Y41910
X57785Y70485
X57785Y67310
X58230Y76899
X60325Y62865
X60706Y56388
X60706Y27686
X60706Y26670
X60706Y19050
X60706Y17780
X61595Y41910
X61595Y45720
X61976Y27686
X61976Y26670
X61976Y19050
X61976Y17780
X63246Y27686
X63246Y26670
X63246Y19050
X63246Y17780
X63500Y70485
X63500Y67310
X63500Y60706
X64516Y27686
X64516Y26670
X64516Y19050
X64516Y17780
X65405Y41910
X65786Y27686
X65786Y26670
X65786Y19050
X65786Y17780
X67056Y27686
X67056Y26670
X67056Y19050
X67056Y17780
X68326Y27686
X68326Y26670
X68326Y19050
X68326Y17780
X69596Y27686
X69596Y26670
X69596Y19050
X69596Y17780
X69850Y73660
X69850Y65405
X69850Y41910
T2
X4445Y67310
X10922Y67310
X7747Y67310
X22860Y72390
T3
X26956Y57404
X28956Y57404
X67310Y50760
X67310Y48260
X36830Y41275
X36830Y39275
X52705Y41275
X52705Y39275
X28448Y79502
X28448Y64262
X30988Y79502
X30988Y64262
X33528Y79502
X33528Y64262
X36068Y79502
X36068Y64262
X38608Y79502
X38608Y64262
X41148Y79502
X41148Y64262
X43688Y79502
X43688Y64262
X46228Y79502
X46228Y64262
X48768Y79502
X48768Y64262
X51308Y79502
X51308Y64262
X53848Y79502
X53848Y64262
X56388Y79502
X56388Y64262
X58928Y79502
X58928Y64262
X61468Y79502
X61468Y64262
X64008Y79502
X64008Y64262
X10954Y57404
X12954Y57404
X42704Y57404
X44704Y57404
X20955Y41275
X20955Y39275
X67310Y57785
X67310Y55285
X63500Y44450
X66040Y44450
T4
X12700Y87630
X15200Y87630
X17700Y87630
T5
X33632Y88066
X33632Y83566
X40132Y88066
X40132Y83566
X44808Y88066
X44808Y83566
X51308Y88066
X51308Y83566
T6
X7700Y15240
X12700Y15240
X52070Y17780
X52070Y12780
X7700Y30480
X12700Y30480
X52070Y33020
X52070Y28020
T7
X66000Y5000
X66000Y87000
X5000Y5000
X5000Y87000
T8
X10800Y80630
X19600Y80630
T0
M30
