G04 #@! TF.GenerationSoftware,KiCad,Pcbnew,(5.1.2)-1*
G04 #@! TF.CreationDate,2019-11-10T18:16:18+09:00*
G04 #@! TF.ProjectId,Inverter,496e7665-7274-4657-922e-6b696361645f,rev?*
G04 #@! TF.SameCoordinates,PX5731c70PY93d1cc0*
G04 #@! TF.FileFunction,Legend,Bot*
G04 #@! TF.FilePolarity,Positive*
%FSLAX46Y46*%
G04 Gerber Fmt 4.6, Leading zero omitted, Abs format (unit mm)*
G04 Created by KiCad (PCBNEW (5.1.2)-1) date 2019-11-10 18:16:18*
%MOMM*%
%LPD*%
G04 APERTURE LIST*
%ADD10C,0.120000*%
%ADD11C,0.150000*%
G04 APERTURE END LIST*
D10*
X43178000Y67900733D02*
X43178000Y68243267D01*
X44198000Y67900733D02*
X44198000Y68243267D01*
X40638000Y67900733D02*
X40638000Y68243267D01*
X41658000Y67900733D02*
X41658000Y68243267D01*
X33356733Y72900000D02*
X33699267Y72900000D01*
X33356733Y71880000D02*
X33699267Y71880000D01*
X45383267Y76452000D02*
X45040733Y76452000D01*
X45383267Y77472000D02*
X45040733Y77472000D01*
X50604267Y76452000D02*
X50261733Y76452000D01*
X50604267Y77472000D02*
X50261733Y77472000D01*
X54551733Y77472000D02*
X54894267Y77472000D01*
X54551733Y76452000D02*
X54894267Y76452000D01*
D11*
X45791380Y68238667D02*
X45315190Y68572000D01*
X45791380Y68810096D02*
X44791380Y68810096D01*
X44791380Y68429143D01*
X44839000Y68333905D01*
X44886619Y68286286D01*
X44981857Y68238667D01*
X45124714Y68238667D01*
X45219952Y68286286D01*
X45267571Y68333905D01*
X45315190Y68429143D01*
X45315190Y68810096D01*
X44791380Y67905334D02*
X44791380Y67286286D01*
X45172333Y67619620D01*
X45172333Y67476762D01*
X45219952Y67381524D01*
X45267571Y67333905D01*
X45362809Y67286286D01*
X45600904Y67286286D01*
X45696142Y67333905D01*
X45743761Y67381524D01*
X45791380Y67476762D01*
X45791380Y67762477D01*
X45743761Y67857715D01*
X45696142Y67905334D01*
X40203380Y68238667D02*
X39727190Y68572000D01*
X40203380Y68810096D02*
X39203380Y68810096D01*
X39203380Y68429143D01*
X39251000Y68333905D01*
X39298619Y68286286D01*
X39393857Y68238667D01*
X39536714Y68238667D01*
X39631952Y68286286D01*
X39679571Y68333905D01*
X39727190Y68429143D01*
X39727190Y68810096D01*
X39298619Y67857715D02*
X39251000Y67810096D01*
X39203380Y67714858D01*
X39203380Y67476762D01*
X39251000Y67381524D01*
X39298619Y67333905D01*
X39393857Y67286286D01*
X39489095Y67286286D01*
X39631952Y67333905D01*
X40203380Y67905334D01*
X40203380Y67286286D01*
X37345857Y72032858D02*
X37393476Y71985239D01*
X37536333Y71937620D01*
X37631571Y71937620D01*
X37774428Y71985239D01*
X37869666Y72080477D01*
X37917285Y72175715D01*
X37964904Y72366191D01*
X37964904Y72509048D01*
X37917285Y72699524D01*
X37869666Y72794762D01*
X37774428Y72890000D01*
X37631571Y72937620D01*
X37536333Y72937620D01*
X37393476Y72890000D01*
X37345857Y72842381D01*
X36964904Y72842381D02*
X36917285Y72890000D01*
X36822047Y72937620D01*
X36583952Y72937620D01*
X36488714Y72890000D01*
X36441095Y72842381D01*
X36393476Y72747143D01*
X36393476Y72651905D01*
X36441095Y72509048D01*
X37012523Y71937620D01*
X36393476Y71937620D01*
X35536333Y72604286D02*
X35536333Y71937620D01*
X35774428Y72985239D02*
X36012523Y72270953D01*
X35393476Y72270953D01*
X42679857Y76604858D02*
X42727476Y76557239D01*
X42870333Y76509620D01*
X42965571Y76509620D01*
X43108428Y76557239D01*
X43203666Y76652477D01*
X43251285Y76747715D01*
X43298904Y76938191D01*
X43298904Y77081048D01*
X43251285Y77271524D01*
X43203666Y77366762D01*
X43108428Y77462000D01*
X42965571Y77509620D01*
X42870333Y77509620D01*
X42727476Y77462000D01*
X42679857Y77414381D01*
X42298904Y77414381D02*
X42251285Y77462000D01*
X42156047Y77509620D01*
X41917952Y77509620D01*
X41822714Y77462000D01*
X41775095Y77414381D01*
X41727476Y77319143D01*
X41727476Y77223905D01*
X41775095Y77081048D01*
X42346523Y76509620D01*
X41727476Y76509620D01*
X41108428Y77509620D02*
X41013190Y77509620D01*
X40917952Y77462000D01*
X40870333Y77414381D01*
X40822714Y77319143D01*
X40775095Y77128667D01*
X40775095Y76890572D01*
X40822714Y76700096D01*
X40870333Y76604858D01*
X40917952Y76557239D01*
X41013190Y76509620D01*
X41108428Y76509620D01*
X41203666Y76557239D01*
X41251285Y76604858D01*
X41298904Y76700096D01*
X41346523Y76890572D01*
X41346523Y77128667D01*
X41298904Y77319143D01*
X41251285Y77414381D01*
X41203666Y77462000D01*
X41108428Y77509620D01*
X47900857Y76604858D02*
X47948476Y76557239D01*
X48091333Y76509620D01*
X48186571Y76509620D01*
X48329428Y76557239D01*
X48424666Y76652477D01*
X48472285Y76747715D01*
X48519904Y76938191D01*
X48519904Y77081048D01*
X48472285Y77271524D01*
X48424666Y77366762D01*
X48329428Y77462000D01*
X48186571Y77509620D01*
X48091333Y77509620D01*
X47948476Y77462000D01*
X47900857Y77414381D01*
X46948476Y76509620D02*
X47519904Y76509620D01*
X47234190Y76509620D02*
X47234190Y77509620D01*
X47329428Y77366762D01*
X47424666Y77271524D01*
X47519904Y77223905D01*
X46091333Y77509620D02*
X46281809Y77509620D01*
X46377047Y77462000D01*
X46424666Y77414381D01*
X46519904Y77271524D01*
X46567523Y77081048D01*
X46567523Y76700096D01*
X46519904Y76604858D01*
X46472285Y76557239D01*
X46377047Y76509620D01*
X46186571Y76509620D01*
X46091333Y76557239D01*
X46043714Y76604858D01*
X45996095Y76700096D01*
X45996095Y76938191D01*
X46043714Y77033429D01*
X46091333Y77081048D01*
X46186571Y77128667D01*
X46377047Y77128667D01*
X46472285Y77081048D01*
X46519904Y77033429D01*
X46567523Y76938191D01*
X58540857Y76604858D02*
X58588476Y76557239D01*
X58731333Y76509620D01*
X58826571Y76509620D01*
X58969428Y76557239D01*
X59064666Y76652477D01*
X59112285Y76747715D01*
X59159904Y76938191D01*
X59159904Y77081048D01*
X59112285Y77271524D01*
X59064666Y77366762D01*
X58969428Y77462000D01*
X58826571Y77509620D01*
X58731333Y77509620D01*
X58588476Y77462000D01*
X58540857Y77414381D01*
X57588476Y76509620D02*
X58159904Y76509620D01*
X57874190Y76509620D02*
X57874190Y77509620D01*
X57969428Y77366762D01*
X58064666Y77271524D01*
X58159904Y77223905D01*
X56683714Y77509620D02*
X57159904Y77509620D01*
X57207523Y77033429D01*
X57159904Y77081048D01*
X57064666Y77128667D01*
X56826571Y77128667D01*
X56731333Y77081048D01*
X56683714Y77033429D01*
X56636095Y76938191D01*
X56636095Y76700096D01*
X56683714Y76604858D01*
X56731333Y76557239D01*
X56826571Y76509620D01*
X57064666Y76509620D01*
X57159904Y76557239D01*
X57207523Y76604858D01*
M02*
